<svg width="1080" height="1440" viewBox="0 0 1080 1440" fill="none" xmlns="http://www.w3.org/2000/svg">
<g clip-path="url(#clip0_73_10)">
<rect width="1080" height="1440" fill="white"/>
<mask id="mask0_73_10" style="mask-type:luminance" maskUnits="userSpaceOnUse" x="-180" y="0" width="1440" height="1440">
<path d="M1260 0H-180V1440H1260V0Z" fill="white"/>
</mask>
<g mask="url(#mask0_73_10)">
<path d="M700.134 110.801C684.425 169.416 736.501 224.535 742.628 284.911C750.462 362.081 679.817 427.811 605.245 449.162C544.974 466.423 476.365 462.417 424.414 427.32C372.462 392.223 342.524 322.652 363.423 263.533C384.82 203.007 450.53 166.248 470.939 105.382C484.678 64.4138 474.035 16.2589 444.305 -15.1135C437.734 -22.0451 430.305 -28.0866 422.254 -33.1724C442.499 -27.792 461.703 -19.3091 478.741 -6.97746C520.357 23.1382 544.955 79.9593 526.988 128.075C514.669 161.077 485.273 185.393 472.523 218.232C454.169 265.536 479.14 325.172 525.724 345.273C572.308 365.374 632.827 342.628 654.65 296.823C687.567 227.71 634.169 145.054 651.246 70.4291C661.614 25.1149 697.372 -11.0553 738.34 -33.0153C779.315 -54.9753 825.506 -64.8066 870.997 -74.3891L1006.04 -85.1629C922.097 -56.4807 841.988 -16.6058 768.502 33.0807C739.27 52.848 709.265 76.7258 700.128 110.815L700.134 110.801Z" fill="#D9D9D9" fill-opacity="0.25"/>
<path d="M514.892 -71.064C557.378 -15.1135 569.291 62.6793 545.485 128.782C535.366 156.875 519.14 183.535 517.156 213.323C515.173 243.118 535.438 277.697 565.265 276.323C582.951 275.505 598.117 261.982 605.657 245.959C613.191 229.935 614.415 211.739 614.651 194.033C615.332 143.692 609.107 93.2203 613.8 43.0953C618.493 -7.02983 635.996 -58.7389 674.869 -90.72L514.892 -71.064Z" fill="#D9D9D9" fill-opacity="0.25"/>
<path d="M246.875 -62.1491C283.556 -58.3135 321.172 -54.2095 354.109 -37.6167C387.046 -21.024 414.818 11.0356 415.427 47.9127C416.199 94.4509 376.39 130.268 340.004 159.29C303.617 188.313 263.847 224.201 264.737 270.74C265.333 301.935 284.603 329.367 293.374 359.313C302.145 389.258 293.446 430.442 262.846 436.523C238.241 441.412 216.164 419.924 204.487 397.721C164.769 322.22 190.695 225.072 246.6 160.632C263.291 141.395 282.423 124.226 297.484 103.687C312.545 83.1469 323.503 58.0189 320.531 32.7207C315.046 -13.9746 265.51 -42.8531 219.201 -50.976L246.868 -62.1556L246.875 -62.1491Z" fill="#D9D9D9" fill-opacity="0.25"/>
<path d="M-239.485 217.316C-205.312 201.999 -169.462 187.992 -132.016 187.449C-94.569 186.905 -54.8708 202.34 -35.5552 234.425C8.78374 308.081 -74.9654 411.847 -30.3581 485.345C-16.5668 508.078 8.82959 523.329 35.378 524.828C61.9263 526.327 88.8739 514.034 105.139 492.997C112.693 483.225 120.665 470.33 132.99 471.161C141.912 471.764 148.621 480.044 151.134 488.631C158.145 512.568 139.987 537.951 117.262 548.234C94.5423 558.517 68.5961 557.699 43.6579 557.542C18.7198 557.385 -7.61917 558.478 -28.7217 571.765C-49.8243 585.052 -62.6141 614.716 -49.3922 635.858C-23.9959 676.479 55.9634 643.176 78.6631 685.362C91.1518 708.578 71.9801 739.224 46.5903 746.313C21.2005 753.401 -5.96973 742.975 -27.8708 728.313C-90.0526 686.69 -125.005 607.791 -114.042 533.769C-108.282 494.895 -91.1785 458.568 -83.2585 420.074C-75.3319 381.58 -78.6897 336.849 -107.254 309.862C-142.37 276.683 -201.083 284.708 -241.521 311.138L-239.479 217.303L-239.485 217.316Z" fill="#D9D9D9" fill-opacity="0.25"/>
<path d="M101.808 175.817C80.9933 197.66 45.4646 208.211 19.8391 192.286C3.57367 182.173 -5.9827 163.61 -22.1892 153.399C-41.4918 141.244 -66.0242 143.201 -88.8351 142.815C-126.949 142.167 -164.919 133.691 -199.689 118.06C-227.815 105.415 -257.439 80.5811 -252.007 50.2233C-248.865 32.6815 -234.589 19.4269 -220.17 8.94764C-204.14 -2.70327 -186.873 -12.6524 -168.775 -20.7295C-128.893 -31.0058 -88.4816 -39.0829 -47.4547 -38.3564C7.69077 -37.3876 65.0944 -18.2422 100.001 24.4604C134.902 67.1629 139.857 135.89 101.808 175.817Z" fill="#D9D9D9" fill-opacity="0.25"/>
<path d="M232.514 97.5207C221.151 110.684 207.235 121.405 195.571 134.3C163.616 169.612 151.049 218.121 143.456 265.13C135.864 312.146 131.943 360.55 113.151 404.306C100.093 434.703 72.8768 465.336 40.1627 460.433C8.60047 455.695 -9.28827 417.718 -2.625 386.503C4.04482 355.294 31.1626 334.263 53.3648 311.341C105.382 257.649 169.147 125.136 179.254 73.584C181.623 61.4945 183.698 49.0975 189.497 38.2385C195.303 27.3731 205.717 18.0982 218.009 17.2996C235.355 16.1804 250.056 33.0611 251.424 50.3935C252.779 67.7193 243.877 84.3644 232.52 97.5207H232.514Z" fill="#D9D9D9" fill-opacity="0.25"/>
<path d="M1300.24 81.5498C1236.23 126.478 1150.56 121.209 1073.23 109.538C995.898 97.8611 914.302 82.0538 841.575 110.821C802.767 126.17 766.322 159.212 765.203 200.932C764.332 233.228 784.499 262.087 805.791 286.383C827.077 310.68 851.132 334.342 861.028 365.092C874.663 407.455 858.371 453.43 838.067 493.03C823.811 520.835 807.258 548.136 800.895 578.723C794.533 609.316 800.719 644.937 825.212 664.331C850.359 684.249 888.892 680.924 914.727 661.903C940.562 642.888 954.864 611.352 959.773 579.646C964.682 547.946 961.259 515.612 957.829 483.716C951.421 424.185 943.442 360.818 904.962 314.954C890.791 298.06 873.105 284.433 858.482 267.932C843.86 251.431 832.032 230.583 833.446 208.584C835.907 170.372 878.066 145.139 916.351 145.787C977.236 146.815 1032.15 201.783 1033.12 262.676C1033.61 293.649 1022.34 326.566 1035.8 354.476C1049.14 382.169 1082.29 394.18 1112.86 397.427C1199.49 406.63 1289.61 362.651 1335.66 288.694L1300.24 81.5498ZM1189.07 332.974C1183.05 338.524 1174.59 340.396 1166.55 341.941C1150.85 344.959 1134.51 347.544 1119.03 343.538C1115.45 342.609 1111.86 341.273 1109.12 338.78C1106.38 336.286 1104.66 332.424 1105.53 328.831C1106.27 325.774 1108.69 323.424 1111.17 321.487C1118.8 315.524 1150.1 303.545 1179.35 306.262C1183.78 306.674 1188.39 307.983 1191.53 311.132C1197.33 316.918 1195.1 327.423 1189.07 332.974Z" fill="#D9D9D9" fill-opacity="0.25"/>
<path d="M1244.97 -32.9433C1187.97 -13.5491 1126.37 -14.9891 1066.2 -13.32C1006.02 -11.6444 943.35 -5.85164 891.988 25.5665C887.21 28.4858 881.974 32.7993 882.622 38.3629C883.112 42.5782 886.883 45.5694 890.515 47.7556C912.344 60.8923 939.318 62.3454 964.649 59.6094C989.98 56.8734 1014.85 50.328 1040.28 48.7833C1068.7 47.0553 1097.08 51.6174 1125.31 55.3156C1153.54 59.0138 1182.34 61.8545 1210.36 56.736C1238.37 51.6174 1265.87 37.5513 1281.42 13.6931L1244.98 -32.9433H1244.97Z" fill="#D9D9D9" fill-opacity="0.25"/>
<path d="M1333.39 474.513C1293.25 464.086 1251.31 453.6 1210.78 462.397C1170.25 471.194 1132.06 505.761 1134 547.187C1135.13 571.32 1149.17 595.996 1140.08 618.382C1130.83 641.153 1099.54 648.87 1077.34 638.326C1055.14 627.774 1041.75 604.054 1036.39 580.065C1031.03 556.076 1032.31 531.19 1031.47 506.625C1028.63 423.825 976.628 259.233 976.628 259.233C968.878 240.375 957.384 221.642 939.057 212.721C920.723 203.793 894.561 208.944 886.398 227.631C879.611 243.177 887.334 261.648 899.07 273.895C910.806 286.141 926.116 294.284 939.116 305.188C974.068 334.512 989.457 381.384 994.248 426.751C999.039 472.124 994.909 518.04 998.948 563.485C1002.99 608.93 1016.69 656.044 1050.15 687.057C1083.61 718.076 1140.68 726.441 1174.43 695.736C1211.16 662.328 1206.5 601.239 1237.76 562.673C1260.78 534.299 1302.9 523.289 1336.85 536.786L1333.4 474.506L1333.39 474.513Z" fill="#D9D9D9" fill-opacity="0.25"/>
<path d="M242.679 1128.48C112.13 1143.27 -16.6913 1171.7 -143.13 1207.4C-160.423 1212.29 -178.253 1217.4 -196.096 1215.25C-213.945 1213.1 -231.997 1201.69 -236.01 1184.16C-240.205 1165.85 -227.625 1147.02 -211.235 1137.82C-194.852 1128.62 -175.477 1126.83 -156.764 1125.16C-58.1044 1116.34 40.3524 1105.3 138.515 1092.05C166.824 1088.23 200.245 1080.29 210.102 1053.48C220.699 1024.65 193.909 993.508 164.12 985.988C134.332 978.46 103.195 986.655 72.7851 991.034C32.5436 996.833 -8.66655 995.865 -48.5873 988.167C-69.3495 984.168 -90.3276 978.087 -107.045 965.153C-123.762 952.22 -135.517 931.176 -132.454 910.257C-128.37 882.373 -101.147 864.471 -75.6004 852.572C-34.5669 833.472 9.18289 820.211 53.9211 813.325C83.1204 808.828 112.968 806.983 141.093 797.93C169.219 788.878 196.285 771.166 208.178 744.113C220.071 717.068 211.653 680.243 185.085 667.303C166.208 658.113 143.777 662.341 123.074 658.865C102.364 655.383 80.2535 635.95 88.4353 616.608C94.5291 602.208 113.393 598.444 128.919 600.29C135.7 601.095 142.527 602.575 149.328 603.641C171.131 607.071 192.999 596.572 203.459 577.145C207.379 569.86 209.408 561.947 208.584 554.295C207.314 542.579 201.554 531.877 198.301 520.553C195.048 509.23 194.858 495.628 203.072 487.178C210.312 479.736 222.486 478.63 232.023 482.74C241.553 486.851 248.648 495.314 253.361 504.563C267.048 531.386 261.405 566.764 240.054 587.998C216.32 611.601 180.176 615.633 147.325 622.06C140.989 623.297 133.612 625.588 131.681 631.754C128.912 640.597 139.712 647.561 148.817 649.296C169.265 653.184 190.754 647.869 211.084 652.307C274.863 666.229 265.968 730.028 241.71 762.447C223.2 787.183 196.808 805.169 167.504 814.981C138.207 824.786 107.293 828.511 76.9218 834.159C36.9684 841.588 -2.35019 852.434 -40.4644 866.533C-58.7524 873.301 -79.1545 883.519 -83.252 902.592C-86.7865 919.06 -75.6527 935.961 -60.9189 944.129C-46.1851 952.292 -28.6826 953.522 -11.8345 953.647C32.7924 953.974 77.2294 947.815 121.843 946.636C166.464 945.465 212.393 949.621 252.491 969.225C292.588 988.822 328.843 1012.23 328.843 1056.87C328.843 1104.51 295.547 1122.49 242.679 1128.48Z" fill="#D9D9D9" fill-opacity="0.25"/>
<path d="M741.659 504.223C700.553 564.912 624.848 600.297 551.919 592.907C514.904 589.156 474.584 575.974 442.629 595.034C409.477 614.808 402.781 663.251 419.877 697.863C436.968 732.476 471.475 755.123 506.703 770.911C541.924 786.698 579.541 797.433 612.811 817.004C633.632 829.257 653.085 845.64 662.989 867.665C672.899 889.697 671.171 918.137 654.067 935.188C638.476 950.734 613.669 953.764 592.317 948.404C570.96 943.049 552.181 930.607 533.873 918.373C496.531 893.428 459.189 868.484 421.848 843.539C374.871 812.153 324.864 776.919 307.112 723.279C289.4 669.737 308.912 610.377 339.349 562.896C356.825 535.641 379.715 509.439 410.72 500.099C450.104 488.245 491.485 506.14 532.197 512.025C569.173 517.372 623.219 540.02 702.818 450.255C710.077 442.073 721.191 436.385 732.089 437.335C745.71 438.519 755.358 452.743 755.699 466.409C756.039 480.076 749.323 492.905 741.659 504.223Z" fill="#D9D9D9" fill-opacity="0.25"/>
<path d="M1289.14 897.604C1262.24 908.234 1231.88 901.204 1204.19 892.859C1176.49 884.507 1147.59 874.833 1119.25 880.593C1072.82 890.038 1044.49 936.478 1004.35 961.632C951.388 994.824 875.559 985.13 832.647 939.685C787.313 891.668 779.02 813.796 725.445 775.178C671.419 736.239 595.237 753.938 532.551 731.455C515.958 725.505 498.776 714.613 495.307 697.333C491.112 676.46 509.91 656.863 530.417 651.148C550.924 645.441 572.675 649.42 593.908 651.031C608.897 652.169 623.978 652.078 638.954 650.788C650.775 649.774 662.406 647.287 673.776 643.87C681.951 641.415 690.414 639.766 698.871 639.033C727.992 636.493 757.008 644.727 773.856 667.898C791.181 691.711 790.704 723.541 797.36 752.236C804.017 780.925 825.977 811.931 855.176 808.095C873.962 805.621 887.825 789.27 896.668 772.514C905.517 755.758 911.552 737.136 924.12 722.952C936.68 708.761 958.994 700.449 974.775 710.935C992.179 722.5 991.171 749.167 981.432 767.651C971.692 786.135 955.642 800.902 947.146 819.988C938.65 839.075 941.583 866.468 960.925 874.374C979.35 881.902 998.646 867.6 1015.1 856.401C1083.8 809.666 1172.57 808.128 1255.65 808.239C1278.01 808.272 1303.8 809.941 1317.1 827.915C1334.31 851.164 1316.05 886.968 1289.15 897.598L1289.14 897.604Z" fill="#D9D9D9" fill-opacity="0.25"/>
<path d="M621.452 1099.73C614.52 1119.02 594.785 1131.43 574.625 1135.19C554.478 1138.96 533.749 1135.53 513.595 1131.77C479.985 1125.5 443.153 1116.12 424.152 1087.69C405.884 1060.38 409.935 1023.85 397.558 993.417C377.116 943.128 317.723 921.214 263.749 915.375C209.782 909.53 153.098 913.601 103.569 891.38C97.9002 888.84 91.5381 884.651 91.7344 878.433C91.9701 870.768 101.481 867.548 109.08 866.428C115.174 865.532 121.268 864.687 127.374 863.876C250.966 847.545 376.337 882.903 471.561 963.353C485.921 975.495 501.768 985.837 518.76 993.94C543.384 1005.68 570.371 1013.11 592.383 1029.23C614.402 1045.34 630.681 1074.06 621.452 1099.73Z" fill="#D9D9D9" fill-opacity="0.25"/>
<path d="M555.238 1483.46C601.39 1475.19 648.275 1466.69 690.205 1445.71C732.135 1424.74 769.189 1389.16 780.65 1343.7C794.094 1290.4 771.755 1229.42 798.532 1181.42C816.729 1148.79 857.258 1130.33 893.821 1138.02C930.377 1145.71 960.041 1178.93 963.55 1216.13C966.921 1251.82 948.6 1288.3 958.274 1322.82C970.017 1364.71 1016.93 1385.05 1059.23 1395.28C1158.02 1419.17 1262.63 1418.64 1361.17 1393.73L1360.88 1371.82C1271.61 1378.66 1178.91 1385.04 1095.24 1353.2C1068.81 1343.14 1042.11 1327.66 1030.44 1301.9C1009.86 1256.46 1044.56 1204.17 1038.64 1154.64C1033.5 1111.66 998.07 1077.77 959.073 1058.98C915.107 1037.79 863.45 1031.33 816.604 1045.01C769.758 1058.7 728.646 1093.42 710.928 1138.9C685.499 1204.17 709.03 1281.14 682.069 1345.79C653.446 1414.43 577.564 1448.79 507.253 1473L555.244 1483.46L555.238 1483.46Z" fill="#D9D9D9" fill-opacity="0.25"/>
<path d="M760.975 1475.79C802.224 1451.19 829.159 1404.22 829.564 1356.19C829.741 1335.42 825.323 1314.86 824.701 1294.1C824.079 1273.33 827.915 1251.15 841.942 1235.83C856.414 1220.04 880.979 1214.48 900.844 1222.5C920.703 1230.52 934.521 1251.59 933.964 1273C933.375 1295.69 918.7 1315.14 907.429 1334.84C896.158 1354.54 888.113 1380.01 900.36 1399.12C910.427 1414.83 930.842 1420.38 949.49 1420.89C968.963 1421.42 988.324 1417.88 1007.8 1417.39C1027.28 1416.9 1047.83 1419.89 1063.28 1431.76C1078.73 1443.63 1087.02 1466.33 1077.75 1483.46L760.975 1475.8V1475.79Z" fill="#D9D9D9" fill-opacity="0.25"/>
<path d="M-218.494 1249.87C-141.893 1273.81 -58.4838 1258.71 17.8296 1233.86C94.1431 1209.02 167.662 1174.56 246.371 1158.85C268.416 1154.45 291.377 1151.59 313.233 1156.85C335.088 1162.11 355.785 1176.95 362.572 1198.38C371.683 1227.14 353.507 1258.18 329.734 1276.76C305.961 1295.33 276.833 1305.68 251.535 1322.11C226.23 1338.54 203.504 1364.69 204.872 1394.84C205.507 1408.78 211.254 1421.97 213.63 1435.72C216.013 1449.48 214.003 1465.65 202.771 1473.95C193.575 1480.75 180.275 1480.1 170.365 1474.41C160.455 1468.71 153.582 1458.77 149.158 1448.23C134.666 1413.69 144.681 1372.39 167.131 1342.4C189.582 1312.42 222.729 1292.22 256.863 1276.8C270.55 1270.62 284.976 1264.77 295.226 1253.8C305.476 1242.83 310.136 1224.9 301.379 1212.7C290.886 1198.1 268.39 1199.66 251.974 1206.99C188.227 1235.47 160.455 1321.18 92.9125 1338.87C55.8914 1348.57 17.4042 1334.55 -19.4009 1324.07C-112.399 1297.58 -211.628 1293.27 -306.576 1311.58L-218.474 1249.87H-218.494Z" fill="#D9D9D9" fill-opacity="0.25"/>
<path d="M41.596 1402.85C35.6789 1390.01 28.7734 1377.42 19.0534 1367.16C-10.3881 1336.06 -58.8309 1332.64 -101.147 1339.19C-141.16 1345.37 -207.23 1358.06 -207.23 1358.06C-219.849 1384.3 -232.351 1416.08 -217.401 1441.06C-206.189 1459.81 -183.254 1467.54 -161.974 1472.51C-112.615 1484.06 -61.6128 1488.61 -10.9902 1485.96C10.4265 1484.85 34.8345 1480.62 46.0142 1462.33C56.8207 1444.63 50.2818 1421.68 41.596 1402.85ZM-34.2462 1410.12C-36.5371 1415.93 -42.6179 1419.13 -48.2339 1421.86C-61.3313 1428.21 -74.4288 1434.56 -87.5262 1440.91L-172.395 1449.12C-154.774 1445.99 -96.1531 1401.46 -82.7153 1396.47C-75.98 1393.97 -69.4346 1390.86 -62.4179 1389.31C-55.4077 1387.76 -47.6644 1387.93 -41.5444 1391.68C-35.4179 1395.44 -31.6084 1403.44 -34.2462 1410.12Z" fill="#D9D9D9" fill-opacity="0.25"/>
<path d="M341.319 1488.07C321.094 1466.39 300.868 1444.71 280.643 1423.03C275.321 1417.33 269.725 1411.04 268.913 1403.28C267.486 1389.69 280.905 1379.53 293.197 1373.56C316.479 1362.24 341.574 1354.96 364.68 1343.3C387.785 1331.63 409.608 1314.41 419.027 1290.29C426.469 1271.24 425.67 1249.19 436.169 1231.63C445.49 1216.03 462.207 1206.56 478.571 1198.66C496.859 1189.82 516.076 1181.95 536.328 1180.51C556.579 1179.06 578.219 1184.9 591.892 1199.92C609.748 1219.54 610.003 1250.48 599.354 1274.77C588.705 1299.07 569.134 1318.16 549.7 1336.21C530.267 1354.26 510.1 1372.45 497.651 1395.88C484.036 1421.5 479.945 1452.83 459.668 1473.58C442.388 1491.27 416.094 1497.71 391.411 1496.22C366.729 1494.73 343.073 1486.26 319.817 1477.87L341.319 1488.07Z" fill="#D9D9D9" fill-opacity="0.25"/>
<path d="M855.17 1009.71C848.258 1016.71 836.83 1014.77 827.07 1013.6C809.155 1011.46 790.73 1013.75 773.882 1020.21C753.048 1028.19 734.832 1042.34 713.494 1048.88C692.162 1055.42 664.521 1051.24 654.585 1031.26C646.822 1015.63 652.942 996.395 663.061 982.172C673.174 967.948 686.952 956.625 696.947 942.323C708.637 925.593 714.561 904.988 713.926 884.612C713.422 868.464 731.088 857.893 744.643 866.677C744.971 866.893 745.298 867.116 745.619 867.345C761.269 878.557 760.339 901.492 765.569 920.016C771.964 942.69 790.39 961.58 812.893 968.544C824.419 972.111 837.072 972.838 847.309 979.22C857.546 985.601 863.646 1001.13 855.17 1009.71Z" fill="#D9D9D9" fill-opacity="0.25"/>
</g>
<g filter="url(#filter0_d_73_10)">
<path d="M425.48 593.88H444.74V609H405.5V545.28H425.48V593.88ZM471.007 561.21V569.04H490.807V584.07H471.007V593.07H493.507V609H451.027V545.28H493.507V561.21H471.007ZM551.077 545.28V561.12H534.157V609H514.177V561.12H497.437V545.28H551.077ZM561.716 545.28H581.516L570.896 571.83H557.756L561.716 545.28ZM615.44 609.63C607.82 609.63 601.52 607.86 596.54 604.32C591.62 600.72 588.95 595.47 588.53 588.57H609.77C610.07 592.23 611.69 594.06 614.63 594.06C615.71 594.06 616.61 593.82 617.33 593.34C618.11 592.8 618.5 591.99 618.5 590.91C618.5 589.41 617.69 588.21 616.07 587.31C614.45 586.35 611.93 585.27 608.51 584.07C604.43 582.63 601.04 581.22 598.34 579.84C595.7 578.46 593.42 576.45 591.5 573.81C589.58 571.17 588.65 567.78 588.71 563.64C588.71 559.5 589.76 555.99 591.86 553.11C594.02 550.17 596.93 547.95 600.59 546.45C604.31 544.95 608.48 544.2 613.1 544.2C620.9 544.2 627.08 546 631.64 549.6C636.26 553.2 638.69 558.27 638.93 564.81H617.42C617.36 563.01 616.91 561.72 616.07 560.94C615.23 560.16 614.21 559.77 613.01 559.77C612.17 559.77 611.48 560.07 610.94 560.67C610.4 561.21 610.13 561.99 610.13 563.01C610.13 564.45 610.91 565.65 612.47 566.61C614.09 567.51 616.64 568.62 620.12 569.94C624.14 571.44 627.44 572.88 630.02 574.26C632.66 575.64 634.94 577.56 636.86 580.02C638.78 582.48 639.74 585.57 639.74 589.29C639.74 593.19 638.78 596.7 636.86 599.82C634.94 602.88 632.15 605.28 628.49 607.02C624.83 608.76 620.48 609.63 615.44 609.63ZM738.643 545.28V609H718.753V577.23L708.943 609H691.843L682.033 577.23V609H662.053V545.28H686.533L700.573 583.53L714.253 545.28H738.643ZM767.638 561.21V569.04H787.438V584.07H767.638V593.07H790.138V609H747.658V545.28H790.138V561.21H767.638ZM817.648 561.21V569.04H837.448V584.07H817.648V593.07H840.148V609H797.668V545.28H840.148V561.21H817.648ZM897.718 545.28V561.12H880.798V609H860.818V561.12H844.078V545.28H897.718Z" fill="black"/>
</g>
<path d="M172 626H901V875.424L547 977L172 875.424V626Z" fill="black"/>
<path d="M888 648.348C886.914 653.453 885.771 658.558 884.782 663.682C877.687 700.016 870.611 736.368 863.535 772.721C858.514 798.535 853.494 824.369 848.473 850.183C848.298 851.073 848.085 851.962 847.891 852.871H776.009C783.667 797.395 791.305 742.092 798.962 686.615H796.035C794.445 694.698 792.875 702.723 791.305 710.728C784.268 746.926 777.231 783.124 770.174 819.303C768.119 829.899 766.006 840.496 763.971 851.092C763.738 852.31 763.467 853.026 761.994 853.006C750.13 852.948 738.285 852.968 726.421 852.968C726.13 852.968 725.839 852.852 725.316 852.736C738.673 784.168 751.991 715.698 765.347 647.13H837.559C829.707 702.974 821.876 758.702 814.044 814.43C816.06 815.049 816.991 814.72 817.417 812.458C827.982 758.006 838.644 703.574 849.229 649.141C849.578 647.304 850.334 646.995 851.962 646.995C863.128 647.053 874.275 647.033 885.441 647.014C886.294 647.014 887.128 646.937 887.981 646.917V648.31L888 648.348Z" fill="white"/>
<path d="M499.764 647.285C488.966 702.858 478.207 758.219 467.41 813.734H474.485C485.283 758.18 496.081 702.723 506.879 647.188H546.619C545.805 651.442 545.049 655.561 544.235 659.68C536.849 697.599 529.463 735.537 522.038 773.456C519.305 787.456 516.727 801.494 513.644 815.416C509.128 835.758 489.878 852.388 469.096 854.631C459.268 855.694 449.904 854.631 441.452 849.178C432.651 843.493 428.251 835.159 427.223 824.911C426.351 816.287 428.658 808.049 430.267 799.734C436.819 765.973 443.43 732.211 450.021 698.45C453.239 681.956 456.496 665.442 459.675 648.948C459.907 647.711 460.218 647.053 461.672 647.072C474.059 647.13 486.466 647.111 498.853 647.13C499.086 647.13 499.299 647.208 499.784 647.324L499.764 647.285Z" fill="white"/>
<path d="M606.211 852.871H568.486C570.929 836.551 573.333 820.405 575.795 803.93C571.278 803.93 567.052 803.872 562.826 804.008C562.38 804.008 561.721 805.129 561.566 805.825C557.979 820.579 554.393 835.352 550.923 850.145C550.419 852.272 549.702 853.123 547.317 853.084C536.481 852.929 525.625 853.026 514.769 853.026H511.88C513.024 848.308 514.09 843.841 515.195 839.394C530.82 776.299 546.464 713.203 562.012 650.07C562.613 647.633 563.562 646.995 566.005 647.014C588.085 647.13 610.165 647.072 632.246 647.072C633.157 647.072 634.068 647.072 635.328 647.072C625.577 715.852 615.865 784.343 606.153 852.871H606.211ZM593.184 686.19C591.109 685.494 590.218 685.977 589.714 688.124C584.906 708.621 579.963 729.079 575.058 749.537C573.856 754.526 572.674 759.514 571.472 764.561H581.455C585.371 738.341 589.268 712.275 593.184 686.19Z" fill="white"/>
<path d="M256.921 852.929H185C194.635 784.304 204.231 715.814 213.865 647.208H251.88C243.545 702.8 235.228 758.296 226.912 813.792C229.626 814.604 229.723 814.546 230.42 811.665C241.005 767.887 251.57 724.109 262.155 680.35C264.675 669.928 267.176 659.506 269.676 649.083C269.948 647.942 270.142 647.014 271.828 647.033C283.518 647.13 295.227 647.092 306.916 647.092C307.226 647.092 307.517 647.15 308.157 647.227C291.078 715.814 274.019 784.304 256.921 852.929Z" fill="white"/>
<path d="M438.777 719.952H399.599C401.847 708.272 404.077 696.806 406.325 685.146H399.25C396.827 698.043 394.384 710.98 391.922 724.109C392.678 724.496 393.415 724.883 394.151 725.25C401.654 728.905 409.156 732.559 416.658 736.233C429.259 742.401 432.961 749.227 430.383 762.918C427.068 780.572 423.676 798.226 419.818 815.784C415.185 836.861 398.532 851.556 377.053 854.225C369.028 855.211 361.118 854.863 353.5 851.962C340.725 847.09 333.591 836.358 334.289 822.049C334.618 815.397 336.053 808.765 337.235 802.171C338.573 794.649 340.182 787.185 341.674 779.702C341.83 778.967 342.023 778.232 342.198 777.459H381.279C378.837 789.873 376.433 802.171 373.99 814.604H381.027C382.152 808.977 383.295 803.331 384.42 797.685C385.893 790.201 387.269 782.68 388.878 775.216C389.286 773.359 388.743 772.663 387.192 771.89C378.139 767.365 369.124 762.744 360.11 758.103C354.876 755.415 350.495 751.76 349.836 745.573C349.448 741.879 349.875 738.012 350.572 734.338C353.849 717.071 356.989 699.745 360.847 682.613C365.286 662.967 383.606 647.575 403.708 645.506C410.493 644.81 417.181 644.907 423.734 646.802C438.893 651.21 447.229 662.542 446.124 678.281C445.581 686.093 443.72 693.809 442.344 701.543C441.258 707.673 439.979 713.783 438.777 719.932V719.952Z" fill="white"/>
<path d="M659.25 811.839H681.059C678.383 825.703 675.747 839.277 673.13 852.852H611.581C612.356 848.733 613.093 844.808 613.849 840.902C621.39 802.132 628.931 763.362 636.491 724.612C641.396 699.397 646.358 674.201 651.224 648.967C651.496 647.556 651.922 647.033 653.415 647.033C665.589 647.091 677.744 647.072 689.918 647.072C690.306 647.072 690.674 647.13 691.372 647.188C680.671 702.046 669.989 756.807 659.269 811.839H659.25Z" fill="white"/>
<path d="M718.24 852.871H678.48C679.45 847.863 680.361 843.029 681.291 838.214C687.883 804.298 694.493 770.401 701.104 736.484C706.725 707.576 712.367 678.649 717.95 649.741C718.337 647.768 718.977 646.995 721.187 647.014C732.644 647.15 744.12 647.072 755.577 647.072H758.33C744.954 715.814 731.616 784.284 718.26 852.871H718.24Z" fill="white"/>
<path d="M312.615 688.278H305.578C306.16 685.165 306.703 682.323 307.245 679.48C308.312 673.95 309.358 668.42 310.522 662.909C310.657 662.251 311.549 661.265 312.092 661.265C326.961 661.188 341.849 661.207 356.718 661.227C356.931 661.227 357.144 661.362 357.551 661.497C345.125 725.308 332.699 789.099 320.292 852.852H280.513C291.214 797.936 301.895 743.233 312.615 688.278Z" fill="white"/>
<path d="M352.709 553.546V566.499C352.726 571.13 353.692 575.558 354.828 579.958L355.323 581.844C357.448 589.795 359.401 597.808 360.896 605.884L361.188 607.5C361.932 611.744 361.707 615.699 360.361 619.183C359.017 622.661 356.543 625.702 352.729 628.105H352.729C349.366 630.228 345.95 631.262 342.562 631.238C339.175 631.215 335.782 630.134 332.468 627.975V627.974L331.832 627.547C328.717 625.38 326.537 622.746 325.268 619.741C323.913 616.535 323.58 612.874 324.293 608.854C325.652 601.178 329.558 594.411 333.293 587.542L333.294 587.541C334.314 585.66 335.436 583.824 336.573 581.979C337.708 580.139 338.856 578.287 339.919 576.391L339.92 576.392C343.856 569.409 347.698 562.345 351.572 555.35L351.571 555.349C351.917 554.741 352.304 554.151 352.696 553.544C352.701 553.545 352.705 553.545 352.709 553.546Z" fill="white"/>
<path d="M352.709 553.546V566.499C352.726 571.13 353.692 575.558 354.828 579.958L355.323 581.844C357.448 589.795 359.401 597.808 360.896 605.884L361.188 607.5C361.932 611.744 361.707 615.699 360.361 619.183C359.017 622.661 356.543 625.702 352.729 628.105H352.729C349.366 630.228 345.95 631.262 342.562 631.238C339.175 631.215 335.782 630.134 332.468 627.975V627.974L331.832 627.547C328.717 625.38 326.537 622.746 325.268 619.741C323.913 616.535 323.58 612.874 324.293 608.854C325.652 601.178 329.558 594.411 333.293 587.542L333.294 587.541C334.314 585.66 335.436 583.824 336.573 581.979C337.708 580.139 338.856 578.287 339.919 576.391L339.92 576.392C343.856 569.409 347.698 562.345 351.572 555.35L351.571 555.349C351.917 554.741 352.304 554.151 352.696 553.544C352.701 553.545 352.705 553.545 352.709 553.546Z" stroke="black"/>
<path d="M352.709 553.546V566.499C352.726 571.13 353.692 575.558 354.828 579.958L355.323 581.844C357.448 589.795 359.401 597.808 360.896 605.884L361.188 607.5C361.932 611.744 361.707 615.699 360.361 619.183C359.017 622.661 356.543 625.702 352.729 628.105H352.729C349.366 630.228 345.95 631.262 342.562 631.238C339.175 631.215 335.782 630.134 332.468 627.975V627.974L331.832 627.547C328.717 625.38 326.537 622.746 325.268 619.741C323.913 616.535 323.58 612.874 324.293 608.854C325.652 601.178 329.558 594.411 333.293 587.542L333.294 587.541C334.314 585.66 335.436 583.824 336.573 581.979C337.708 580.139 338.856 578.287 339.919 576.391L339.92 576.392C343.856 569.409 347.698 562.345 351.572 555.35L351.571 555.349C351.917 554.741 352.304 554.151 352.696 553.544C352.701 553.545 352.705 553.545 352.709 553.546Z" stroke="black"/>
<path d="M360.687 523.591C360.795 523.605 360.905 523.618 361.015 523.633V545.114C361.053 553.754 363.516 561.964 366.143 570.196V570.197C370.596 584.097 374.666 598.113 377.67 612.25C379.138 619.233 378.699 625.756 376.03 631.515C373.362 637.272 368.442 642.315 360.863 646.298H360.862C347.526 653.316 333.61 653.222 320.465 646.079H320.464C313.598 642.361 308.846 637.746 306.155 632.437C303.467 627.131 302.815 621.088 304.223 614.468C306.903 601.844 314.607 590.716 321.939 579.473H321.94C323.95 576.382 326.16 573.368 328.394 570.346C330.624 567.327 332.879 564.299 334.963 561.199L334.962 561.198C342.694 549.762 350.239 538.196 357.852 526.735C358.589 525.655 359.422 524.605 360.249 523.533C360.396 523.552 360.541 523.571 360.687 523.591Z" fill="black"/>
<path d="M360.687 523.591C360.795 523.605 360.905 523.618 361.015 523.633V545.114C361.053 553.754 363.516 561.964 366.143 570.196V570.197C370.596 584.097 374.666 598.113 377.67 612.25C379.138 619.233 378.699 625.756 376.03 631.515C373.362 637.272 368.442 642.315 360.863 646.298H360.862C347.526 653.316 333.61 653.222 320.465 646.079H320.464C313.598 642.361 308.846 637.746 306.155 632.437C303.467 627.131 302.815 621.088 304.223 614.468C306.903 601.844 314.607 590.716 321.939 579.473H321.94C323.95 576.382 326.16 573.368 328.394 570.346C330.624 567.327 332.879 564.299 334.963 561.199L334.962 561.198C342.694 549.762 350.239 538.196 357.852 526.735C358.589 525.655 359.422 524.605 360.249 523.533C360.396 523.552 360.541 523.571 360.687 523.591Z" stroke="black"/>
<path d="M360.687 523.591C360.795 523.605 360.905 523.618 361.015 523.633V545.114C361.053 553.754 363.516 561.964 366.143 570.196V570.197C370.596 584.097 374.666 598.113 377.67 612.25C379.138 619.233 378.699 625.756 376.03 631.515C373.362 637.272 368.442 642.315 360.863 646.298H360.862C347.526 653.316 333.61 653.222 320.465 646.079H320.464C313.598 642.361 308.846 637.746 306.155 632.437C303.467 627.131 302.815 621.088 304.223 614.468C306.903 601.844 314.607 590.716 321.939 579.473H321.94C323.95 576.382 326.16 573.368 328.394 570.346C330.624 567.327 332.879 564.299 334.963 561.199L334.962 561.198C342.694 549.762 350.239 538.196 357.852 526.735C358.589 525.655 359.422 524.605 360.249 523.533C360.396 523.552 360.541 523.571 360.687 523.591Z" stroke="black"/>
<path d="M352.281 553.546V566.499C352.298 571.13 353.264 575.558 354.4 579.958L354.896 581.844C357.02 589.795 358.973 597.808 360.468 605.884L360.761 607.5C361.505 611.744 361.28 615.699 359.934 619.183C358.59 622.661 356.115 625.702 352.302 628.105H352.301C348.939 630.228 345.523 631.262 342.135 631.238C338.747 631.215 335.354 630.134 332.04 627.975V627.974L331.404 627.547C328.289 625.38 326.11 622.746 324.84 619.741C323.485 616.535 323.152 612.874 323.865 608.854C325.224 601.178 329.13 594.411 332.865 587.542L332.866 587.541C333.886 585.66 335.009 583.824 336.146 581.979C337.28 580.139 338.429 578.287 339.491 576.391L339.492 576.392C343.429 569.409 347.27 562.345 351.145 555.35L351.144 555.349C351.489 554.741 351.876 554.151 352.269 553.544C352.273 553.545 352.277 553.545 352.281 553.546Z" fill="white"/>
<path d="M352.281 553.546V566.499C352.298 571.13 353.264 575.558 354.4 579.958L354.896 581.844C357.02 589.795 358.973 597.808 360.468 605.884L360.761 607.5C361.505 611.744 361.28 615.699 359.934 619.183C358.59 622.661 356.115 625.702 352.302 628.105H352.301C348.939 630.228 345.523 631.262 342.135 631.238C338.747 631.215 335.354 630.134 332.04 627.975V627.974L331.404 627.547C328.289 625.38 326.11 622.746 324.84 619.741C323.485 616.535 323.152 612.874 323.865 608.854C325.224 601.178 329.13 594.411 332.865 587.542L332.866 587.541C333.886 585.66 335.009 583.824 336.146 581.979C337.28 580.139 338.429 578.287 339.491 576.391L339.492 576.392C343.429 569.409 347.27 562.345 351.145 555.35L351.144 555.349C351.489 554.741 351.876 554.151 352.269 553.544C352.273 553.545 352.277 553.545 352.281 553.546Z" stroke="black"/>
<path d="M352.281 553.546V566.499C352.298 571.13 353.264 575.558 354.4 579.958L354.896 581.844C357.02 589.795 358.973 597.808 360.468 605.884L360.761 607.5C361.505 611.744 361.28 615.699 359.934 619.183C358.59 622.661 356.115 625.702 352.302 628.105H352.301C348.939 630.228 345.523 631.262 342.135 631.238C338.747 631.215 335.354 630.134 332.04 627.975V627.974L331.404 627.547C328.289 625.38 326.11 622.746 324.84 619.741C323.485 616.535 323.152 612.874 323.865 608.854C325.224 601.178 329.13 594.411 332.865 587.542L332.866 587.541C333.886 585.66 335.009 583.824 336.146 581.979C337.28 580.139 338.429 578.287 339.491 576.391L339.492 576.392C343.429 569.409 347.27 562.345 351.145 555.35L351.144 555.349C351.489 554.741 351.876 554.151 352.269 553.544C352.273 553.545 352.277 553.545 352.281 553.546Z" stroke="black"/>
<path d="M311.511 657.475C312.228 653.802 312.848 650.572 313.488 647.208H360.304C359.568 651.075 358.831 654.865 358.172 658.288C357.125 657.978 356.272 657.495 355.419 657.495C341.713 657.456 328.027 657.456 314.322 657.456C313.488 657.456 312.654 657.456 311.491 657.456L311.511 657.475Z" fill="white"/>
<g filter="url(#filter1_f_73_10)">
<rect x="141" y="1293" width="797" height="79" rx="39.5" fill="black" fill-opacity="0.2"/>
<rect x="142.5" y="1294.5" width="794" height="76" rx="38" stroke="black" stroke-width="3"/>
</g>
<path d="M238.34 1339.45L242.24 1328.23H245.265L240.015 1342H236.615L231.39 1328.23H234.44L238.34 1339.45ZM247.169 1326.38V1323.77H252.369V1342H249.494V1326.38H247.169ZM262.16 1342.23C261.076 1342.23 260.101 1342.03 259.235 1341.65C258.385 1341.25 257.71 1340.72 257.21 1340.05C256.71 1339.37 256.443 1338.61 256.41 1337.77H259.36C259.41 1338.36 259.685 1338.85 260.185 1339.25C260.701 1339.63 261.343 1339.82 262.11 1339.82C262.91 1339.82 263.526 1339.67 263.96 1339.37C264.41 1339.06 264.635 1338.66 264.635 1338.17C264.635 1337.66 264.385 1337.27 263.885 1337.02C263.401 1336.77 262.626 1336.5 261.56 1336.2C260.526 1335.92 259.685 1335.64 259.035 1335.37C258.385 1335.11 257.818 1334.7 257.335 1334.15C256.868 1333.6 256.635 1332.87 256.635 1331.97C256.635 1331.24 256.851 1330.57 257.285 1329.97C257.718 1329.36 258.335 1328.87 259.135 1328.52C259.951 1328.17 260.885 1328 261.935 1328C263.501 1328 264.76 1328.4 265.71 1329.2C266.676 1329.98 267.193 1331.06 267.26 1332.42H264.41C264.36 1331.81 264.11 1331.32 263.66 1330.95C263.21 1330.58 262.601 1330.4 261.835 1330.4C261.085 1330.4 260.51 1330.54 260.11 1330.82C259.71 1331.11 259.51 1331.48 259.51 1331.95C259.51 1332.32 259.643 1332.62 259.91 1332.87C260.176 1333.12 260.501 1333.32 260.885 1333.47C261.268 1333.61 261.835 1333.78 262.585 1334C263.585 1334.27 264.401 1334.54 265.035 1334.82C265.685 1335.09 266.243 1335.49 266.71 1336.02C267.176 1336.56 267.418 1337.27 267.435 1338.15C267.435 1338.93 267.218 1339.63 266.785 1340.25C266.351 1340.87 265.735 1341.35 264.935 1341.7C264.151 1342.05 263.226 1342.23 262.16 1342.23ZM283.489 1328.23V1342H280.639V1340.37C280.189 1340.94 279.597 1341.39 278.864 1341.72C278.147 1342.04 277.381 1342.2 276.564 1342.2C275.481 1342.2 274.506 1341.97 273.639 1341.52C272.789 1341.07 272.114 1340.41 271.614 1339.52C271.131 1338.64 270.889 1337.57 270.889 1336.32V1328.23H273.714V1335.9C273.714 1337.13 274.022 1338.08 274.639 1338.75C275.256 1339.4 276.097 1339.72 277.164 1339.72C278.231 1339.72 279.072 1339.4 279.689 1338.75C280.322 1338.08 280.639 1337.13 280.639 1335.9V1328.23H283.489ZM286.8 1335.05C286.8 1333.67 287.083 1332.44 287.65 1331.37C288.233 1330.31 289.016 1329.48 290 1328.9C291 1328.3 292.1 1328 293.3 1328C294.383 1328 295.325 1328.22 296.125 1328.65C296.941 1329.07 297.591 1329.59 298.075 1330.22V1328.23H300.95V1342H298.075V1339.95C297.591 1340.6 296.933 1341.14 296.1 1341.57C295.266 1342.01 294.316 1342.23 293.25 1342.23C292.066 1342.23 290.983 1341.93 290 1341.32C289.016 1340.71 288.233 1339.86 287.65 1338.77C287.083 1337.67 286.8 1336.43 286.8 1335.05ZM298.075 1335.1C298.075 1334.15 297.875 1333.32 297.475 1332.62C297.091 1331.92 296.583 1331.39 295.95 1331.02C295.316 1330.66 294.633 1330.47 293.9 1330.47C293.166 1330.47 292.483 1330.66 291.85 1331.02C291.216 1331.37 290.7 1331.9 290.3 1332.6C289.916 1333.28 289.725 1334.1 289.725 1335.05C289.725 1336 289.916 1336.83 290.3 1337.55C290.7 1338.27 291.216 1338.82 291.85 1339.2C292.5 1339.57 293.183 1339.75 293.9 1339.75C294.633 1339.75 295.316 1339.57 295.95 1339.2C296.583 1338.83 297.091 1338.3 297.475 1337.6C297.875 1336.88 298.075 1336.05 298.075 1335.1ZM308.043 1323.5V1342H305.193V1323.5H308.043ZM313.735 1326.4C313.218 1326.4 312.785 1326.22 312.435 1325.87C312.085 1325.52 311.91 1325.09 311.91 1324.57C311.91 1324.06 312.085 1323.62 312.435 1323.27C312.785 1322.92 313.218 1322.75 313.735 1322.75C314.235 1322.75 314.66 1322.92 315.01 1323.27C315.36 1323.62 315.535 1324.06 315.535 1324.57C315.535 1325.09 315.36 1325.52 315.01 1325.87C314.66 1326.22 314.235 1326.4 313.735 1326.4ZM315.135 1328.23V1342H312.285V1328.23H315.135ZM326.326 1328C327.41 1328 328.376 1328.22 329.226 1328.67C330.093 1329.12 330.768 1329.79 331.251 1330.67C331.735 1331.56 331.976 1332.62 331.976 1333.87V1342H329.151V1334.3C329.151 1333.07 328.843 1332.12 328.226 1331.47C327.61 1330.81 326.768 1330.47 325.701 1330.47C324.635 1330.47 323.785 1330.81 323.151 1331.47C322.535 1332.12 322.226 1333.07 322.226 1334.3V1342H319.376V1328.23H322.226V1329.8C322.693 1329.23 323.285 1328.79 324.001 1328.47C324.735 1328.16 325.51 1328 326.326 1328ZM337.262 1342.18C336.745 1342.18 336.312 1342 335.962 1341.65C335.612 1341.3 335.437 1340.87 335.437 1340.35C335.437 1339.83 335.612 1339.4 335.962 1339.05C336.312 1338.7 336.745 1338.52 337.262 1338.52C337.762 1338.52 338.187 1338.7 338.537 1339.05C338.887 1339.4 339.062 1339.83 339.062 1340.35C339.062 1340.87 338.887 1341.3 338.537 1341.65C338.187 1342 337.762 1342.18 337.262 1342.18ZM359.317 1328C360.4 1328 361.367 1328.22 362.217 1328.67C363.084 1329.12 363.759 1329.79 364.242 1330.67C364.742 1331.56 364.992 1332.62 364.992 1333.87V1342H362.167V1334.3C362.167 1333.07 361.859 1332.12 361.242 1331.47C360.625 1330.81 359.784 1330.47 358.717 1330.47C357.65 1330.47 356.8 1330.81 356.167 1331.47C355.55 1332.12 355.242 1333.07 355.242 1334.3V1342H352.417V1334.3C352.417 1333.07 352.109 1332.12 351.492 1331.47C350.875 1330.81 350.034 1330.47 348.967 1330.47C347.9 1330.47 347.05 1330.81 346.417 1331.47C345.8 1332.12 345.492 1333.07 345.492 1334.3V1342H342.642V1328.23H345.492V1329.8C345.959 1329.23 346.55 1328.79 347.267 1328.47C347.984 1328.16 348.75 1328 349.567 1328C350.667 1328 351.65 1328.23 352.517 1328.7C353.384 1329.17 354.05 1329.84 354.517 1330.72C354.934 1329.89 355.584 1329.23 356.467 1328.75C357.35 1328.25 358.3 1328 359.317 1328ZM381.519 1328.23L373.069 1348.48H370.119L372.919 1341.77L367.494 1328.23H370.669L374.544 1338.72L378.569 1328.23H381.519ZM385.319 1342.18C384.803 1342.18 384.369 1342 384.019 1341.65C383.669 1341.3 383.494 1340.87 383.494 1340.35C383.494 1339.83 383.669 1339.4 384.019 1339.05C384.369 1338.7 384.803 1338.52 385.319 1338.52C385.819 1338.52 386.244 1338.7 386.594 1339.05C386.944 1339.4 387.119 1339.83 387.119 1340.35C387.119 1340.87 386.944 1341.3 386.594 1341.65C386.244 1342 385.819 1342.18 385.319 1342.18ZM392.15 1326.4C391.633 1326.4 391.2 1326.22 390.85 1325.87C390.5 1325.52 390.325 1325.09 390.325 1324.57C390.325 1324.06 390.5 1323.62 390.85 1323.27C391.2 1322.92 391.633 1322.75 392.15 1322.75C392.65 1322.75 393.075 1322.92 393.425 1323.27C393.775 1323.62 393.95 1324.06 393.95 1324.57C393.95 1325.09 393.775 1325.52 393.425 1325.87C393.075 1326.22 392.65 1326.4 392.15 1326.4ZM393.55 1328.23V1342H390.7V1328.23H393.55ZM396.842 1335.05C396.842 1333.67 397.125 1332.44 397.692 1331.37C398.275 1330.31 399.058 1329.48 400.042 1328.9C401.042 1328.3 402.15 1328 403.367 1328C404.267 1328 405.15 1328.2 406.017 1328.6C406.9 1328.98 407.6 1329.5 408.117 1330.15V1323.5H410.992V1342H408.117V1339.92C407.65 1340.59 407 1341.14 406.167 1341.57C405.35 1342.01 404.408 1342.23 403.342 1342.23C402.142 1342.23 401.042 1341.93 400.042 1341.32C399.058 1340.71 398.275 1339.86 397.692 1338.77C397.125 1337.67 396.842 1336.43 396.842 1335.05ZM408.117 1335.1C408.117 1334.15 407.917 1333.32 407.517 1332.62C407.133 1331.92 406.625 1331.39 405.992 1331.02C405.358 1330.66 404.675 1330.47 403.942 1330.47C403.208 1330.47 402.525 1330.66 401.892 1331.02C401.258 1331.37 400.742 1331.9 400.342 1332.6C399.958 1333.28 399.767 1334.1 399.767 1335.05C399.767 1336 399.958 1336.83 400.342 1337.55C400.742 1338.27 401.258 1338.82 401.892 1339.2C402.542 1339.57 403.225 1339.75 403.942 1339.75C404.675 1339.75 405.358 1339.57 405.992 1339.2C406.625 1338.83 407.133 1338.3 407.517 1337.6C407.917 1336.88 408.117 1336.05 408.117 1335.1Z" fill="black"/>
<path d="M208.156 1337.2C208.324 1335.81 208.45 1334.43 208.45 1333C208.45 1331.57 208.324 1330.19 208.156 1328.8H215.254C215.59 1330.14 215.8 1331.55 215.8 1333C215.8 1334.45 215.59 1335.86 215.254 1337.2M204.439 1348.88C205.699 1346.54 206.665 1344.02 207.337 1341.4H213.532C211.497 1344.9 208.27 1347.56 204.439 1348.88ZM203.914 1337.2H194.086C193.876 1335.81 193.75 1334.43 193.75 1333C193.75 1331.57 193.876 1330.16 194.086 1328.8H203.914C204.103 1330.16 204.25 1331.57 204.25 1333C204.25 1334.43 204.103 1335.81 203.914 1337.2ZM199 1349.72C197.257 1347.2 195.85 1344.4 194.989 1341.4H203.011C202.15 1344.4 200.743 1347.2 199 1349.72ZM190.6 1324.6H184.468C186.481 1321.09 189.707 1318.43 193.54 1317.12C192.28 1319.45 191.335 1321.97 190.6 1324.6ZM184.468 1341.4H190.6C191.335 1344.02 192.28 1346.54 193.54 1348.88C189.714 1347.56 186.493 1344.9 184.468 1341.4ZM182.746 1337.2C182.41 1335.86 182.2 1334.45 182.2 1333C182.2 1331.55 182.41 1330.14 182.746 1328.8H189.844C189.676 1330.19 189.55 1331.57 189.55 1333C189.55 1334.43 189.676 1335.81 189.844 1337.2M199 1316.26C200.743 1318.78 202.15 1321.6 203.011 1324.6H194.989C195.85 1321.6 197.257 1318.78 199 1316.26ZM213.532 1324.6H207.337C206.679 1322 205.706 1319.49 204.439 1317.12C208.303 1318.45 211.516 1321.11 213.532 1324.6ZM199 1312C187.387 1312 178 1321.45 178 1333C178 1338.57 180.212 1343.91 184.151 1347.85C186.101 1349.8 188.416 1351.35 190.964 1352.4C193.511 1353.46 196.242 1354 199 1354C204.57 1354 209.911 1351.79 213.849 1347.85C217.788 1343.91 220 1338.57 220 1333C220 1330.24 219.457 1327.51 218.401 1324.96C217.346 1322.42 215.799 1320.1 213.849 1318.15C211.899 1316.2 209.584 1314.65 207.036 1313.6C204.489 1312.54 201.758 1312 199 1312Z" fill="black"/>
<path d="M503.402 1339.45L507.302 1328.23H510.327L505.077 1342H501.677L496.452 1328.23H499.502L503.402 1339.45ZM512.231 1326.38V1323.77H517.431V1342H514.556V1326.38H512.231ZM527.221 1342.23C526.138 1342.23 525.163 1342.03 524.296 1341.65C523.446 1341.25 522.771 1340.72 522.271 1340.05C521.771 1339.37 521.505 1338.61 521.471 1337.77H524.421C524.471 1338.36 524.746 1338.85 525.246 1339.25C525.763 1339.63 526.405 1339.82 527.171 1339.82C527.971 1339.82 528.588 1339.67 529.021 1339.37C529.471 1339.06 529.696 1338.66 529.696 1338.17C529.696 1337.66 529.446 1337.27 528.946 1337.02C528.463 1336.77 527.688 1336.5 526.621 1336.2C525.588 1335.92 524.746 1335.64 524.096 1335.37C523.446 1335.11 522.88 1334.7 522.396 1334.15C521.93 1333.6 521.696 1332.87 521.696 1331.97C521.696 1331.24 521.913 1330.57 522.346 1329.97C522.78 1329.36 523.396 1328.87 524.196 1328.52C525.013 1328.17 525.946 1328 526.996 1328C528.563 1328 529.821 1328.4 530.771 1329.2C531.738 1329.98 532.255 1331.06 532.321 1332.42H529.471C529.421 1331.81 529.171 1331.32 528.721 1330.95C528.271 1330.58 527.663 1330.4 526.896 1330.4C526.146 1330.4 525.571 1330.54 525.171 1330.82C524.771 1331.11 524.571 1331.48 524.571 1331.95C524.571 1332.32 524.705 1332.62 524.971 1332.87C525.238 1333.12 525.563 1333.32 525.946 1333.47C526.33 1333.61 526.896 1333.78 527.646 1334C528.646 1334.27 529.463 1334.54 530.096 1334.82C530.746 1335.09 531.305 1335.49 531.771 1336.02C532.238 1336.56 532.48 1337.27 532.496 1338.15C532.496 1338.93 532.28 1339.63 531.846 1340.25C531.413 1340.87 530.796 1341.35 529.996 1341.7C529.213 1342.05 528.288 1342.23 527.221 1342.23ZM548.551 1328.23V1342H545.701V1340.37C545.251 1340.94 544.659 1341.39 543.926 1341.72C543.209 1342.04 542.442 1342.2 541.626 1342.2C540.542 1342.2 539.567 1341.97 538.701 1341.52C537.851 1341.07 537.176 1340.41 536.676 1339.52C536.192 1338.64 535.951 1337.57 535.951 1336.32V1328.23H538.776V1335.9C538.776 1337.13 539.084 1338.08 539.701 1338.75C540.317 1339.4 541.159 1339.72 542.226 1339.72C543.292 1339.72 544.134 1339.4 544.751 1338.75C545.384 1338.08 545.701 1337.13 545.701 1335.9V1328.23H548.551ZM551.861 1335.05C551.861 1333.67 552.144 1332.44 552.711 1331.37C553.294 1330.31 554.078 1329.48 555.061 1328.9C556.061 1328.3 557.161 1328 558.361 1328C559.444 1328 560.386 1328.22 561.186 1328.65C562.003 1329.07 562.653 1329.59 563.136 1330.22V1328.23H566.011V1342H563.136V1339.95C562.653 1340.6 561.994 1341.14 561.161 1341.57C560.328 1342.01 559.378 1342.23 558.311 1342.23C557.128 1342.23 556.044 1341.93 555.061 1341.32C554.078 1340.71 553.294 1339.86 552.711 1338.77C552.144 1337.67 551.861 1336.43 551.861 1335.05ZM563.136 1335.1C563.136 1334.15 562.936 1333.32 562.536 1332.62C562.153 1331.92 561.644 1331.39 561.011 1331.02C560.378 1330.66 559.694 1330.47 558.961 1330.47C558.228 1330.47 557.544 1330.66 556.911 1331.02C556.278 1331.37 555.761 1331.9 555.361 1332.6C554.978 1333.28 554.786 1334.1 554.786 1335.05C554.786 1336 554.978 1336.83 555.361 1337.55C555.761 1338.27 556.278 1338.82 556.911 1339.2C557.561 1339.57 558.244 1339.75 558.961 1339.75C559.694 1339.75 560.378 1339.57 561.011 1339.2C561.644 1338.83 562.153 1338.3 562.536 1337.6C562.936 1336.88 563.136 1336.05 563.136 1335.1ZM573.104 1323.5V1342H570.254V1323.5H573.104ZM578.796 1326.4C578.28 1326.4 577.846 1326.22 577.496 1325.87C577.146 1325.52 576.971 1325.09 576.971 1324.57C576.971 1324.06 577.146 1323.62 577.496 1323.27C577.846 1322.92 578.28 1322.75 578.796 1322.75C579.296 1322.75 579.721 1322.92 580.071 1323.27C580.421 1323.62 580.596 1324.06 580.596 1324.57C580.596 1325.09 580.421 1325.52 580.071 1325.87C579.721 1326.22 579.296 1326.4 578.796 1326.4ZM580.196 1328.23V1342H577.346V1328.23H580.196ZM591.388 1328C592.471 1328 593.438 1328.22 594.288 1328.67C595.155 1329.12 595.83 1329.79 596.313 1330.67C596.796 1331.56 597.038 1332.62 597.038 1333.87V1342H594.213V1334.3C594.213 1333.07 593.905 1332.12 593.288 1331.47C592.671 1330.81 591.83 1330.47 590.763 1330.47C589.696 1330.47 588.846 1330.81 588.213 1331.47C587.596 1332.12 587.288 1333.07 587.288 1334.3V1342H584.438V1328.23H587.288V1329.8C587.755 1329.23 588.346 1328.79 589.063 1328.47C589.796 1328.16 590.571 1328 591.388 1328Z" fill="black"/>
<path d="M455.18 1312H472.82C479.54 1312 485 1317.46 485 1324.18V1341.82C485 1345.05 483.717 1348.15 481.433 1350.43C479.148 1352.72 476.05 1354 472.82 1354H455.18C448.46 1354 443 1348.54 443 1341.82V1324.18C443 1320.95 444.283 1317.85 446.567 1315.57C448.852 1313.28 451.95 1312 455.18 1312ZM454.76 1316.2C452.755 1316.2 450.832 1317 449.414 1318.41C447.996 1319.83 447.2 1321.75 447.2 1323.76V1342.24C447.2 1346.42 450.581 1349.8 454.76 1349.8H473.24C475.245 1349.8 477.168 1349 478.586 1347.59C480.004 1346.17 480.8 1344.25 480.8 1342.24V1323.76C480.8 1319.58 477.419 1316.2 473.24 1316.2H454.76ZM475.025 1319.35C475.721 1319.35 476.389 1319.63 476.881 1320.12C477.373 1320.61 477.65 1321.28 477.65 1321.97C477.65 1322.67 477.373 1323.34 476.881 1323.83C476.389 1324.32 475.721 1324.6 475.025 1324.6C474.329 1324.6 473.661 1324.32 473.169 1323.83C472.677 1323.34 472.4 1322.67 472.4 1321.97C472.4 1321.28 472.677 1320.61 473.169 1320.12C473.661 1319.63 474.329 1319.35 475.025 1319.35ZM464 1322.5C466.785 1322.5 469.455 1323.61 471.425 1325.58C473.394 1327.54 474.5 1330.22 474.5 1333C474.5 1335.78 473.394 1338.46 471.425 1340.42C469.455 1342.39 466.785 1343.5 464 1343.5C461.215 1343.5 458.545 1342.39 456.575 1340.42C454.606 1338.46 453.5 1335.78 453.5 1333C453.5 1330.22 454.606 1327.54 456.575 1325.58C458.545 1323.61 461.215 1322.5 464 1322.5ZM464 1326.7C462.329 1326.7 460.727 1327.36 459.545 1328.55C458.364 1329.73 457.7 1331.33 457.7 1333C457.7 1334.67 458.364 1336.27 459.545 1337.45C460.727 1338.64 462.329 1339.3 464 1339.3C465.671 1339.3 467.273 1338.64 468.455 1337.45C469.636 1336.27 470.3 1334.67 470.3 1333C470.3 1331.33 469.636 1329.73 468.455 1328.55C467.273 1327.36 465.671 1326.7 464 1326.7Z" fill="black"/>
<path d="M696.562 1334.17H691.512V1339.35H688.862V1334.17H683.812V1331.77H688.862V1326.6H691.512V1331.77H696.562V1334.17ZM710.909 1328C710.726 1327.23 710.392 1326.66 709.909 1326.27C709.426 1325.89 708.751 1325.7 707.884 1325.7C706.567 1325.7 705.584 1326.21 704.934 1327.22C704.284 1328.22 703.942 1329.89 703.909 1332.22C704.342 1331.49 704.976 1330.92 705.809 1330.52C706.642 1330.12 707.542 1329.92 708.509 1329.92C709.609 1329.92 710.576 1330.17 711.409 1330.65C712.259 1331.12 712.917 1331.8 713.384 1332.7C713.867 1333.6 714.109 1334.67 714.109 1335.92C714.109 1337.09 713.876 1338.13 713.409 1339.05C712.959 1339.97 712.284 1340.69 711.384 1341.22C710.484 1341.74 709.401 1342 708.134 1342C706.417 1342 705.067 1341.62 704.084 1340.87C703.117 1340.11 702.434 1339.03 702.034 1337.65C701.651 1336.27 701.459 1334.54 701.459 1332.47C701.459 1326.37 703.609 1323.32 707.909 1323.32C709.576 1323.32 710.884 1323.77 711.834 1324.67C712.801 1325.57 713.367 1326.68 713.534 1328H710.909ZM707.884 1332.32C706.867 1332.32 706.001 1332.63 705.284 1333.25C704.584 1333.85 704.234 1334.72 704.234 1335.87C704.234 1337.02 704.559 1337.94 705.209 1338.62C705.876 1339.29 706.801 1339.62 707.984 1339.62C709.034 1339.62 709.859 1339.3 710.459 1338.65C711.076 1338 711.384 1337.13 711.384 1336.05C711.384 1334.92 711.084 1334.02 710.484 1333.35C709.901 1332.67 709.034 1332.32 707.884 1332.32ZM719.224 1338.12C720.824 1336.74 722.082 1335.61 722.999 1334.72C723.932 1333.82 724.707 1332.89 725.324 1331.92C725.941 1330.96 726.249 1329.99 726.249 1329.02C726.249 1328.02 726.007 1327.24 725.524 1326.67C725.057 1326.11 724.316 1325.82 723.299 1325.82C722.316 1325.82 721.549 1326.14 720.999 1326.77C720.466 1327.39 720.182 1328.22 720.149 1329.27H717.399C717.449 1327.37 718.016 1325.92 719.099 1324.92C720.199 1323.91 721.591 1323.4 723.274 1323.4C725.091 1323.4 726.507 1323.9 727.524 1324.9C728.557 1325.9 729.074 1327.23 729.074 1328.9C729.074 1330.1 728.766 1331.26 728.149 1332.37C727.549 1333.47 726.824 1334.47 725.974 1335.35C725.141 1336.22 724.074 1337.22 722.774 1338.37L721.649 1339.37H729.574V1341.75H717.424V1339.67L719.224 1338.12ZM742.647 1332.47C740.913 1331.61 740.047 1330.24 740.047 1328.37C740.047 1327.47 740.272 1326.65 740.722 1325.9C741.172 1325.15 741.847 1324.56 742.747 1324.12C743.647 1323.67 744.747 1323.45 746.047 1323.45C747.33 1323.45 748.422 1323.67 749.322 1324.12C750.238 1324.56 750.922 1325.15 751.372 1325.9C751.822 1326.65 752.047 1327.47 752.047 1328.37C752.047 1329.31 751.805 1330.13 751.322 1330.85C750.855 1331.55 750.23 1332.09 749.447 1332.47C750.397 1332.82 751.147 1333.4 751.697 1334.2C752.247 1334.98 752.522 1335.91 752.522 1336.97C752.522 1338.06 752.247 1339.02 751.697 1339.85C751.147 1340.68 750.38 1341.32 749.397 1341.77C748.413 1342.23 747.297 1342.45 746.047 1342.45C744.797 1342.45 743.68 1342.23 742.697 1341.77C741.73 1341.32 740.972 1340.68 740.422 1339.85C739.872 1339.02 739.597 1338.06 739.597 1336.97C739.597 1335.89 739.872 1334.96 740.422 1334.17C740.972 1333.39 741.713 1332.82 742.647 1332.47ZM749.322 1328.72C749.322 1327.79 749.03 1327.07 748.447 1326.57C747.863 1326.07 747.063 1325.82 746.047 1325.82C745.047 1325.82 744.255 1326.07 743.672 1326.57C743.088 1327.07 742.797 1327.8 742.797 1328.75C742.797 1329.58 743.097 1330.27 743.697 1330.8C744.313 1331.32 745.097 1331.57 746.047 1331.57C746.997 1331.57 747.78 1331.31 748.397 1330.77C749.013 1330.24 749.322 1329.56 749.322 1328.72ZM746.047 1333.72C744.947 1333.72 744.047 1334 743.347 1334.55C742.663 1335.08 742.322 1335.86 742.322 1336.87C742.322 1337.82 742.655 1338.6 743.322 1339.2C743.988 1339.78 744.897 1340.07 746.047 1340.07C747.18 1340.07 748.072 1339.77 748.722 1339.17C749.388 1338.57 749.722 1337.81 749.722 1336.87C749.722 1335.87 749.38 1335.1 748.697 1334.55C748.03 1334 747.147 1333.72 746.047 1333.72ZM755.964 1328.27C756.064 1326.72 756.656 1325.52 757.739 1324.65C758.839 1323.78 760.239 1323.35 761.939 1323.35C763.106 1323.35 764.114 1323.56 764.964 1323.97C765.814 1324.39 766.456 1324.96 766.889 1325.67C767.322 1326.39 767.539 1327.2 767.539 1328.1C767.539 1329.13 767.264 1330.02 766.714 1330.75C766.164 1331.48 765.506 1331.97 764.739 1332.22V1332.32C765.722 1332.62 766.489 1333.17 767.039 1333.97C767.589 1334.76 767.864 1335.77 767.864 1337C767.864 1337.98 767.639 1338.86 767.189 1339.62C766.739 1340.39 766.072 1341 765.189 1341.45C764.306 1341.88 763.247 1342.1 762.014 1342.1C760.214 1342.1 758.731 1341.64 757.564 1340.72C756.414 1339.79 755.797 1338.46 755.714 1336.72H758.464C758.531 1337.61 758.872 1338.33 759.489 1338.9C760.106 1339.45 760.939 1339.72 761.989 1339.72C763.006 1339.72 763.789 1339.45 764.339 1338.9C764.889 1338.33 765.164 1337.61 765.164 1336.72C765.164 1335.56 764.789 1334.73 764.039 1334.25C763.306 1333.75 762.172 1333.5 760.639 1333.5H759.989V1331.15H760.664C762.014 1331.13 763.039 1330.91 763.739 1330.47C764.456 1330.04 764.814 1329.36 764.814 1328.42C764.814 1327.62 764.556 1326.99 764.039 1326.52C763.522 1326.04 762.789 1325.8 761.839 1325.8C760.906 1325.8 760.181 1326.04 759.664 1326.52C759.147 1326.99 758.839 1327.57 758.739 1328.27H755.964ZM770.983 1326.38V1323.77H776.183V1342H773.308V1326.38H770.983ZM780.248 1338.2V1336.05L788.648 1324H792.098V1335.72H794.423V1338.2H792.098V1342H789.298V1338.2H780.248ZM789.423 1326.9L783.523 1335.72H789.423V1326.9ZM798.86 1338.12C800.46 1336.74 801.718 1335.61 802.635 1334.72C803.568 1333.82 804.343 1332.89 804.96 1331.92C805.576 1330.96 805.885 1329.99 805.885 1329.02C805.885 1328.02 805.643 1327.24 805.16 1326.67C804.693 1326.11 803.951 1325.82 802.935 1325.82C801.951 1325.82 801.185 1326.14 800.635 1326.77C800.101 1327.39 799.818 1328.22 799.785 1329.27H797.035C797.085 1327.37 797.651 1325.92 798.735 1324.92C799.835 1323.91 801.226 1323.4 802.91 1323.4C804.726 1323.4 806.143 1323.9 807.16 1324.9C808.193 1325.9 808.71 1327.23 808.71 1328.9C808.71 1330.1 808.401 1331.26 807.785 1332.37C807.185 1333.47 806.46 1334.47 805.61 1335.35C804.776 1336.22 803.71 1337.22 802.41 1338.37L801.285 1339.37H809.21V1341.75H797.06V1339.67L798.86 1338.12ZM823.963 1326.22H815.588V1331.2C815.938 1330.73 816.455 1330.34 817.138 1330.02C817.838 1329.71 818.58 1329.55 819.363 1329.55C820.763 1329.55 821.897 1329.85 822.763 1330.45C823.647 1331.05 824.272 1331.81 824.638 1332.72C825.022 1333.64 825.213 1334.61 825.213 1335.62C825.213 1336.86 824.972 1337.96 824.488 1338.92C824.022 1339.87 823.313 1340.63 822.363 1341.18C821.43 1341.73 820.28 1342 818.913 1342C817.097 1342 815.638 1341.55 814.538 1340.65C813.438 1339.75 812.78 1338.56 812.563 1337.07H815.338C815.522 1337.86 815.93 1338.48 816.563 1338.95C817.197 1339.4 817.988 1339.62 818.938 1339.62C820.122 1339.62 821.005 1339.27 821.588 1338.55C822.188 1337.83 822.488 1336.88 822.488 1335.7C822.488 1334.5 822.188 1333.58 821.588 1332.95C820.988 1332.3 820.105 1331.97 818.938 1331.97C818.122 1331.97 817.43 1332.18 816.863 1332.6C816.313 1333 815.913 1333.55 815.663 1334.25H812.963V1323.72H823.963V1326.22ZM840.43 1326.22H832.055V1331.2C832.405 1330.73 832.922 1330.34 833.605 1330.02C834.305 1329.71 835.047 1329.55 835.83 1329.55C837.23 1329.55 838.364 1329.85 839.23 1330.45C840.114 1331.05 840.739 1331.81 841.105 1332.72C841.489 1333.64 841.68 1334.61 841.68 1335.62C841.68 1336.86 841.439 1337.96 840.955 1338.92C840.489 1339.87 839.78 1340.63 838.83 1341.18C837.897 1341.73 836.747 1342 835.38 1342C833.564 1342 832.105 1341.55 831.005 1340.65C829.905 1339.75 829.247 1338.56 829.03 1337.07H831.805C831.989 1337.86 832.397 1338.48 833.03 1338.95C833.664 1339.4 834.455 1339.62 835.405 1339.62C836.589 1339.62 837.472 1339.27 838.055 1338.55C838.655 1337.83 838.955 1336.88 838.955 1335.7C838.955 1334.5 838.655 1333.58 838.055 1332.95C837.455 1332.3 836.572 1331.97 835.405 1331.97C834.589 1331.97 833.897 1332.18 833.33 1332.6C832.78 1333 832.38 1333.55 832.13 1334.25H829.43V1323.72H840.43V1326.22ZM844.772 1326.38V1323.77H849.972V1342H847.097V1326.38H844.772ZM854.337 1328.27C854.437 1326.72 855.029 1325.52 856.112 1324.65C857.212 1323.78 858.612 1323.35 860.312 1323.35C861.479 1323.35 862.487 1323.56 863.337 1323.97C864.187 1324.39 864.829 1324.96 865.262 1325.67C865.696 1326.39 865.912 1327.2 865.912 1328.1C865.912 1329.13 865.637 1330.02 865.087 1330.75C864.537 1331.48 863.879 1331.97 863.112 1332.22V1332.32C864.096 1332.62 864.862 1333.17 865.412 1333.97C865.962 1334.76 866.237 1335.77 866.237 1337C866.237 1337.98 866.012 1338.86 865.562 1339.62C865.112 1340.39 864.446 1341 863.562 1341.45C862.679 1341.88 861.621 1342.1 860.387 1342.1C858.587 1342.1 857.104 1341.64 855.937 1340.72C854.787 1339.79 854.171 1338.46 854.087 1336.72H856.837C856.904 1337.61 857.246 1338.33 857.862 1338.9C858.479 1339.45 859.312 1339.72 860.362 1339.72C861.379 1339.72 862.162 1339.45 862.712 1338.9C863.262 1338.33 863.537 1337.61 863.537 1336.72C863.537 1335.56 863.162 1334.73 862.412 1334.25C861.679 1333.75 860.546 1333.5 859.012 1333.5H858.362V1331.15H859.037C860.387 1331.13 861.412 1330.91 862.112 1330.47C862.829 1330.04 863.187 1329.36 863.187 1328.42C863.187 1327.62 862.929 1326.99 862.412 1326.52C861.896 1326.04 861.162 1325.8 860.212 1325.8C859.279 1325.8 858.554 1326.04 858.037 1326.52C857.521 1326.99 857.212 1327.57 857.112 1328.27H854.337ZM879.531 1328C879.348 1327.23 879.014 1326.66 878.531 1326.27C878.048 1325.89 877.373 1325.7 876.506 1325.7C875.189 1325.7 874.206 1326.21 873.556 1327.22C872.906 1328.22 872.564 1329.89 872.531 1332.22C872.964 1331.49 873.598 1330.92 874.431 1330.52C875.264 1330.12 876.164 1329.92 877.131 1329.92C878.231 1329.92 879.198 1330.17 880.031 1330.65C880.881 1331.12 881.539 1331.8 882.006 1332.7C882.489 1333.6 882.731 1334.67 882.731 1335.92C882.731 1337.09 882.498 1338.13 882.031 1339.05C881.581 1339.97 880.906 1340.69 880.006 1341.22C879.106 1341.74 878.023 1342 876.756 1342C875.039 1342 873.689 1341.62 872.706 1340.87C871.739 1340.11 871.056 1339.03 870.656 1337.65C870.273 1336.27 870.081 1334.54 870.081 1332.47C870.081 1326.37 872.231 1323.32 876.531 1323.32C878.198 1323.32 879.506 1323.77 880.456 1324.67C881.423 1325.57 881.989 1326.68 882.156 1328H879.531ZM876.506 1332.32C875.489 1332.32 874.623 1332.63 873.906 1333.25C873.206 1333.85 872.856 1334.72 872.856 1335.87C872.856 1337.02 873.181 1337.94 873.831 1338.62C874.498 1339.29 875.423 1339.62 876.606 1339.62C877.656 1339.62 878.481 1339.3 879.081 1338.65C879.698 1338 880.006 1337.13 880.006 1336.05C880.006 1334.92 879.706 1334.02 879.106 1333.35C878.523 1332.67 877.656 1332.32 876.506 1332.32ZM898.021 1326.22H889.646V1331.2C889.996 1330.73 890.513 1330.34 891.196 1330.02C891.896 1329.71 892.638 1329.55 893.421 1329.55C894.821 1329.55 895.954 1329.85 896.821 1330.45C897.704 1331.05 898.329 1331.81 898.696 1332.72C899.079 1333.64 899.271 1334.61 899.271 1335.62C899.271 1336.86 899.029 1337.96 898.546 1338.92C898.079 1339.87 897.371 1340.63 896.421 1341.18C895.488 1341.73 894.338 1342 892.971 1342C891.154 1342 889.696 1341.55 888.596 1340.65C887.496 1339.75 886.838 1338.56 886.621 1337.07H889.396C889.579 1337.86 889.988 1338.48 890.621 1338.95C891.254 1339.4 892.046 1339.62 892.996 1339.62C894.179 1339.62 895.063 1339.27 895.646 1338.55C896.246 1337.83 896.546 1336.88 896.546 1335.7C896.546 1334.5 896.246 1333.58 895.646 1332.95C895.046 1332.3 894.163 1331.97 892.996 1331.97C892.179 1331.97 891.488 1332.18 890.921 1332.6C890.371 1333 889.971 1333.55 889.721 1334.25H887.021V1323.72H898.021V1326.22Z" fill="black"/>
<path d="M664.025 1318.11C662.136 1316.17 659.886 1314.63 657.406 1313.58C654.927 1312.53 652.267 1311.99 649.582 1312C638.333 1312 629.165 1321.35 629.165 1332.81C629.165 1336.49 630.113 1340.06 631.884 1343.21L629 1354L639.817 1351.1C642.804 1352.76 646.162 1353.64 649.582 1353.64C660.832 1353.64 670 1344.3 670 1332.83C670 1327.27 667.878 1322.04 664.025 1318.11ZM649.582 1350.12C646.533 1350.12 643.546 1349.28 640.929 1347.7L640.311 1347.32L633.883 1349.04L635.593 1342.66L635.181 1342.01C633.486 1339.25 632.587 1336.06 632.585 1332.81C632.585 1323.28 640.208 1315.51 649.562 1315.51C654.094 1315.51 658.359 1317.31 661.553 1320.59C663.134 1322.19 664.388 1324.1 665.24 1326.2C666.092 1328.3 666.527 1330.56 666.518 1332.83C666.559 1342.37 658.936 1350.12 649.582 1350.12ZM658.895 1337.18C658.38 1336.93 655.866 1335.67 655.413 1335.48C654.939 1335.31 654.61 1335.23 654.259 1335.73C653.909 1336.26 652.941 1337.43 652.652 1337.77C652.364 1338.12 652.055 1338.17 651.54 1337.89C651.025 1337.64 649.376 1337.07 647.44 1335.31C645.915 1333.92 644.906 1332.22 644.596 1331.7C644.308 1331.17 644.555 1330.9 644.823 1330.63C645.05 1330.4 645.338 1330.02 645.585 1329.72C645.833 1329.43 645.936 1329.2 646.101 1328.86C646.265 1328.51 646.183 1328.21 646.059 1327.96C645.936 1327.71 644.906 1325.15 644.493 1324.1C644.081 1323.09 643.649 1323.21 643.34 1323.19H642.351C642.001 1323.19 641.465 1323.32 640.991 1323.84C640.538 1324.37 639.219 1325.63 639.219 1328.19C639.219 1330.75 641.053 1333.23 641.3 1333.57C641.547 1333.92 644.906 1339.17 650.015 1341.42C651.231 1341.97 652.178 1342.28 652.92 1342.51C654.136 1342.91 655.248 1342.85 656.134 1342.72C657.123 1342.58 659.163 1341.46 659.575 1340.25C660.008 1339.03 660.008 1338 659.863 1337.77C659.719 1337.54 659.41 1337.43 658.895 1337.18Z" fill="black"/>
</g>
<defs>
<filter id="filter0_d_73_10" x="398.5" y="541.2" width="506.218" height="79.43" filterUnits="userSpaceOnUse" color-interpolation-filters="sRGB">
<feFlood flood-opacity="0" result="BackgroundImageFix"/>
<feColorMatrix in="SourceAlpha" type="matrix" values="0 0 0 0 0 0 0 0 0 0 0 0 0 0 0 0 0 0 127 0" result="hardAlpha"/>
<feOffset dy="4"/>
<feGaussianBlur stdDeviation="3.5"/>
<feComposite in2="hardAlpha" operator="out"/>
<feColorMatrix type="matrix" values="0 0 0 0 0 0 0 0 0 0 0 0 0 0 0 0 0 0 0.5 0"/>
<feBlend mode="normal" in2="BackgroundImageFix" result="effect1_dropShadow_73_10"/>
<feBlend mode="normal" in="SourceGraphic" in2="effect1_dropShadow_73_10" result="shape"/>
</filter>
<filter id="filter1_f_73_10" x="139" y="1291" width="801" height="83" filterUnits="userSpaceOnUse" color-interpolation-filters="sRGB">
<feFlood flood-opacity="0" result="BackgroundImageFix"/>
<feBlend mode="normal" in="SourceGraphic" in2="BackgroundImageFix" result="shape"/>
<feGaussianBlur stdDeviation="1" result="effect1_foregroundBlur_73_10"/>
</filter>
<clipPath id="clip0_73_10">
<rect width="1080" height="1440" fill="white"/>
</clipPath>
</defs>
</svg>
