<svg width="1080" height="1440" viewBox="0 0 1080 1440" fill="none" xmlns="http://www.w3.org/2000/svg">
<rect width="1080" height="1440" fill="white"/>
<path d="M425.48 593.88H444.74V609H405.5V545.28H425.48V593.88ZM471.007 561.21V569.04H490.807V584.07H471.007V593.07H493.507V609H451.027V545.28H493.507V561.21H471.007ZM551.077 545.28V561.12H534.157V609H514.177V561.12H497.437V545.28H551.077ZM561.716 545.28H581.516L570.896 571.83H557.756L561.716 545.28ZM615.44 609.63C607.82 609.63 601.52 607.86 596.54 604.32C591.62 600.72 588.95 595.47 588.53 588.57H609.77C610.07 592.23 611.69 594.06 614.63 594.06C615.71 594.06 616.61 593.82 617.33 593.34C618.11 592.8 618.5 591.99 618.5 590.91C618.5 589.41 617.69 588.21 616.07 587.31C614.45 586.35 611.93 585.27 608.51 584.07C604.43 582.63 601.04 581.22 598.34 579.84C595.7 578.46 593.42 576.45 591.5 573.81C589.58 571.17 588.65 567.78 588.71 563.64C588.71 559.5 589.76 555.99 591.86 553.11C594.02 550.17 596.93 547.95 600.59 546.45C604.31 544.95 608.48 544.2 613.1 544.2C620.9 544.2 627.08 546 631.64 549.6C636.26 553.2 638.69 558.27 638.93 564.81H617.42C617.36 563.01 616.91 561.72 616.07 560.94C615.23 560.16 614.21 559.77 613.01 559.77C612.17 559.77 611.48 560.07 610.94 560.67C610.4 561.21 610.13 561.99 610.13 563.01C610.13 564.45 610.91 565.65 612.47 566.61C614.09 567.51 616.64 568.62 620.12 569.94C624.14 571.44 627.44 572.88 630.02 574.26C632.66 575.64 634.94 577.56 636.86 580.02C638.78 582.48 639.74 585.57 639.74 589.29C639.74 593.19 638.78 596.7 636.86 599.82C634.94 602.88 632.15 605.28 628.49 607.02C624.83 608.76 620.48 609.63 615.44 609.63ZM738.643 545.28V609H718.753V577.23L708.943 609H691.843L682.033 577.23V609H662.053V545.28H686.533L700.573 583.53L714.253 545.28H738.643ZM767.638 561.21V569.04H787.438V584.07H767.638V593.07H790.138V609H747.658V545.28H790.138V561.21H767.638ZM817.648 561.21V569.04H837.448V584.07H817.648V593.07H840.148V609H797.668V545.28H840.148V561.21H817.648ZM897.718 545.28V561.12H880.798V609H860.818V561.12H844.078V545.28H897.718Z" fill="black"/>
<path d="M172 626H901V875.424L547 977L172 875.424V626Z" fill="black"/>
<path d="M888 648.348C886.914 653.453 885.771 658.558 884.782 663.682C877.687 700.016 870.611 736.368 863.535 772.721C858.514 798.535 853.494 824.369 848.473 850.183C848.298 851.073 848.085 851.962 847.891 852.871H776.009C783.667 797.395 791.305 742.092 798.962 686.615H796.035C794.445 694.698 792.875 702.723 791.305 710.728C784.268 746.926 777.231 783.124 770.174 819.303C768.119 829.899 766.006 840.496 763.971 851.092C763.738 852.31 763.467 853.026 761.994 853.006C750.13 852.948 738.285 852.968 726.421 852.968C726.13 852.968 725.839 852.852 725.316 852.736C738.673 784.168 751.991 715.698 765.347 647.13H837.559C829.707 702.974 821.876 758.702 814.044 814.43C816.06 815.049 816.991 814.72 817.417 812.458C827.982 758.006 838.644 703.574 849.229 649.141C849.578 647.304 850.334 646.995 851.962 646.995C863.128 647.053 874.275 647.033 885.441 647.014C886.294 647.014 887.128 646.937 887.981 646.917V648.31L888 648.348Z" fill="white"/>
<path d="M499.764 647.285C488.966 702.858 478.207 758.219 467.41 813.734H474.485C485.283 758.18 496.081 702.723 506.879 647.188H546.619C545.805 651.442 545.049 655.561 544.235 659.68C536.849 697.599 529.463 735.537 522.038 773.456C519.305 787.456 516.727 801.494 513.644 815.416C509.128 835.758 489.878 852.388 469.096 854.631C459.268 855.694 449.904 854.631 441.452 849.178C432.651 843.493 428.251 835.159 427.223 824.911C426.351 816.287 428.658 808.049 430.267 799.734C436.819 765.973 443.43 732.211 450.021 698.45C453.239 681.956 456.496 665.442 459.675 648.948C459.907 647.711 460.218 647.053 461.672 647.072C474.059 647.13 486.466 647.111 498.853 647.13C499.086 647.13 499.299 647.208 499.784 647.324L499.764 647.285Z" fill="white"/>
<path d="M606.211 852.871H568.486C570.929 836.551 573.333 820.405 575.795 803.93C571.278 803.93 567.052 803.872 562.826 804.008C562.38 804.008 561.721 805.129 561.566 805.825C557.979 820.579 554.393 835.352 550.923 850.145C550.419 852.272 549.702 853.123 547.317 853.084C536.481 852.929 525.625 853.026 514.769 853.026H511.88C513.024 848.308 514.09 843.841 515.195 839.394C530.82 776.299 546.464 713.203 562.011 650.07C562.612 647.633 563.562 646.995 566.005 647.014C588.085 647.13 610.165 647.072 632.246 647.072C633.157 647.072 634.068 647.072 635.328 647.072C625.577 715.852 615.865 784.343 606.153 852.871H606.211ZM593.184 686.19C591.109 685.494 590.218 685.977 589.714 688.124C584.906 708.621 579.963 729.079 575.058 749.537C573.856 754.526 572.674 759.514 571.472 764.561H581.455C585.371 738.341 589.268 712.275 593.184 686.19Z" fill="white"/>
<path d="M256.921 852.929H185C194.635 784.304 204.231 715.814 213.865 647.208H251.88C243.545 702.8 235.228 758.296 226.912 813.792C229.626 814.604 229.723 814.546 230.42 811.665C241.005 767.887 251.57 724.109 262.155 680.35C264.675 669.928 267.176 659.506 269.676 649.083C269.948 647.942 270.142 647.014 271.828 647.033C283.518 647.13 295.227 647.092 306.916 647.092C307.226 647.092 307.517 647.15 308.157 647.227C291.078 715.814 274.019 784.304 256.921 852.929Z" fill="white"/>
<path d="M438.777 719.952H399.599C401.847 708.272 404.077 696.806 406.326 685.146H399.25C396.827 698.043 394.384 710.98 391.922 724.109C392.678 724.496 393.415 724.883 394.151 725.25C401.654 728.905 409.156 732.559 416.658 736.233C429.259 742.401 432.961 749.227 430.383 762.918C427.068 780.572 423.676 798.226 419.818 815.784C415.185 836.861 398.533 851.556 377.053 854.225C369.028 855.211 361.118 854.863 353.5 851.962C340.725 847.09 333.591 836.358 334.289 822.049C334.618 815.397 336.053 808.765 337.235 802.171C338.573 794.649 340.182 787.185 341.675 779.702C341.83 778.967 342.023 778.232 342.198 777.459H381.279C378.837 789.873 376.433 802.171 373.99 814.604H381.027C382.152 808.977 383.295 803.331 384.42 797.685C385.893 790.201 387.27 782.68 388.879 775.216C389.286 773.359 388.743 772.663 387.192 771.89C378.139 767.365 369.125 762.744 360.11 758.103C354.876 755.415 350.495 751.76 349.836 745.573C349.448 741.879 349.875 738.012 350.573 734.338C353.849 717.071 356.989 699.745 360.847 682.613C365.286 662.967 383.606 647.575 403.709 645.506C410.493 644.81 417.182 644.907 423.734 646.802C438.893 651.21 447.229 662.542 446.124 678.281C445.581 686.093 443.72 693.809 442.344 701.543C441.258 707.673 439.979 713.783 438.777 719.932V719.952Z" fill="white"/>
<path d="M659.25 811.839H681.059C678.383 825.703 675.747 839.277 673.13 852.852H611.58C612.356 848.733 613.093 844.808 613.849 840.902C621.39 802.132 628.931 763.362 636.491 724.612C641.396 699.397 646.358 674.201 651.224 648.967C651.495 647.556 651.922 647.033 653.415 647.033C665.589 647.091 677.744 647.072 689.918 647.072C690.305 647.072 690.674 647.13 691.372 647.188C680.671 702.046 669.989 756.807 659.269 811.839H659.25Z" fill="white"/>
<path d="M718.24 852.871H678.48C679.45 847.863 680.361 843.029 681.291 838.214C687.882 804.298 694.493 770.401 701.103 736.484C706.725 707.576 712.366 678.649 717.949 649.741C718.337 647.768 718.977 646.995 721.187 647.014C732.644 647.15 744.12 647.072 755.577 647.072H758.33C744.954 715.814 731.616 784.284 718.259 852.871H718.24Z" fill="white"/>
<path d="M312.616 688.278H305.579C306.16 685.165 306.703 682.323 307.246 679.48C308.312 673.95 309.359 668.42 310.522 662.909C310.658 662.251 311.549 661.265 312.092 661.265C326.961 661.188 341.849 661.207 356.718 661.227C356.931 661.227 357.144 661.362 357.551 661.497C345.125 725.308 332.699 789.099 320.292 852.852H280.513C291.214 797.936 301.895 743.233 312.616 688.278Z" fill="white"/>
<path d="M352.709 553.546V566.499C352.726 571.13 353.692 575.558 354.828 579.958L355.323 581.844C357.448 589.795 359.401 597.808 360.895 605.884L361.188 607.5C361.932 611.744 361.707 615.699 360.361 619.183C359.017 622.661 356.543 625.702 352.729 628.105H352.728C349.366 630.228 345.95 631.262 342.562 631.238C339.175 631.215 335.782 630.134 332.468 627.975V627.974L331.832 627.547C328.717 625.38 326.537 622.746 325.268 619.741C323.913 616.535 323.58 612.874 324.293 608.854C325.652 601.178 329.558 594.411 333.293 587.542L333.294 587.541C334.314 585.66 335.436 583.824 336.573 581.979C337.708 580.139 338.856 578.287 339.919 576.391L339.92 576.392C343.856 569.409 347.698 562.345 351.572 555.35L351.571 555.349C351.917 554.741 352.304 554.151 352.696 553.544C352.7 553.545 352.705 553.545 352.709 553.546Z" fill="white"/>
<path d="M352.709 553.546V566.499C352.726 571.13 353.692 575.558 354.828 579.958L355.323 581.844C357.448 589.795 359.401 597.808 360.895 605.884L361.188 607.5C361.932 611.744 361.707 615.699 360.361 619.183C359.017 622.661 356.543 625.702 352.729 628.105H352.728C349.366 630.228 345.95 631.262 342.562 631.238C339.175 631.215 335.782 630.134 332.468 627.975V627.974L331.832 627.547C328.717 625.38 326.537 622.746 325.268 619.741C323.913 616.535 323.58 612.874 324.293 608.854C325.652 601.178 329.558 594.411 333.293 587.542L333.294 587.541C334.314 585.66 335.436 583.824 336.573 581.979C337.708 580.139 338.856 578.287 339.919 576.391L339.92 576.392C343.856 569.409 347.698 562.345 351.572 555.35L351.571 555.349C351.917 554.741 352.304 554.151 352.696 553.544C352.7 553.545 352.705 553.545 352.709 553.546Z" stroke="black"/>
<path d="M352.709 553.546V566.499C352.726 571.13 353.692 575.558 354.828 579.958L355.323 581.844C357.448 589.795 359.401 597.808 360.895 605.884L361.188 607.5C361.932 611.744 361.707 615.699 360.361 619.183C359.017 622.661 356.543 625.702 352.729 628.105H352.728C349.366 630.228 345.95 631.262 342.562 631.238C339.175 631.215 335.782 630.134 332.468 627.975V627.974L331.832 627.547C328.717 625.38 326.537 622.746 325.268 619.741C323.913 616.535 323.58 612.874 324.293 608.854C325.652 601.178 329.558 594.411 333.293 587.542L333.294 587.541C334.314 585.66 335.436 583.824 336.573 581.979C337.708 580.139 338.856 578.287 339.919 576.391L339.92 576.392C343.856 569.409 347.698 562.345 351.572 555.35L351.571 555.349C351.917 554.741 352.304 554.151 352.696 553.544C352.7 553.545 352.705 553.545 352.709 553.546Z" stroke="black"/>
<path d="M360.687 523.591C360.795 523.605 360.905 523.618 361.015 523.633V545.114C361.053 553.754 363.516 561.964 366.143 570.196V570.197C370.596 584.097 374.666 598.113 377.67 612.25C379.138 619.233 378.699 625.756 376.03 631.515C373.362 637.272 368.442 642.315 360.863 646.298H360.862C347.526 653.316 333.61 653.222 320.465 646.079H320.464C313.598 642.361 308.846 637.746 306.155 632.437C303.467 627.131 302.815 621.088 304.223 614.468C306.903 601.844 314.607 590.716 321.939 579.473H321.94C323.95 576.382 326.16 573.368 328.394 570.346C330.624 567.327 332.879 564.299 334.963 561.199L334.962 561.198C342.694 549.762 350.239 538.196 357.852 526.735C358.589 525.655 359.422 524.605 360.249 523.533C360.396 523.552 360.541 523.571 360.687 523.591Z" fill="black"/>
<path d="M360.687 523.591C360.795 523.605 360.905 523.618 361.015 523.633V545.114C361.053 553.754 363.516 561.964 366.143 570.196V570.197C370.596 584.097 374.666 598.113 377.67 612.25C379.138 619.233 378.699 625.756 376.03 631.515C373.362 637.272 368.442 642.315 360.863 646.298H360.862C347.526 653.316 333.61 653.222 320.465 646.079H320.464C313.598 642.361 308.846 637.746 306.155 632.437C303.467 627.131 302.815 621.088 304.223 614.468C306.903 601.844 314.607 590.716 321.939 579.473H321.94C323.95 576.382 326.16 573.368 328.394 570.346C330.624 567.327 332.879 564.299 334.963 561.199L334.962 561.198C342.694 549.762 350.239 538.196 357.852 526.735C358.589 525.655 359.422 524.605 360.249 523.533C360.396 523.552 360.541 523.571 360.687 523.591Z" stroke="black"/>
<path d="M360.687 523.591C360.795 523.605 360.905 523.618 361.015 523.633V545.114C361.053 553.754 363.516 561.964 366.143 570.196V570.197C370.596 584.097 374.666 598.113 377.67 612.25C379.138 619.233 378.699 625.756 376.03 631.515C373.362 637.272 368.442 642.315 360.863 646.298H360.862C347.526 653.316 333.61 653.222 320.465 646.079H320.464C313.598 642.361 308.846 637.746 306.155 632.437C303.467 627.131 302.815 621.088 304.223 614.468C306.903 601.844 314.607 590.716 321.939 579.473H321.94C323.95 576.382 326.16 573.368 328.394 570.346C330.624 567.327 332.879 564.299 334.963 561.199L334.962 561.198C342.694 549.762 350.239 538.196 357.852 526.735C358.589 525.655 359.422 524.605 360.249 523.533C360.396 523.552 360.541 523.571 360.687 523.591Z" stroke="black"/>
<path d="M352.281 553.546V566.499C352.298 571.13 353.264 575.558 354.4 579.958L354.896 581.844C357.02 589.795 358.973 597.808 360.468 605.884L360.761 607.5C361.505 611.744 361.28 615.699 359.934 619.183C358.59 622.661 356.115 625.702 352.302 628.105H352.301C348.939 630.228 345.523 631.262 342.135 631.238C338.747 631.215 335.354 630.134 332.04 627.975V627.974L331.404 627.547C328.289 625.38 326.11 622.746 324.84 619.741C323.485 616.535 323.152 612.874 323.865 608.854C325.224 601.178 329.13 594.411 332.865 587.542L332.866 587.541C333.886 585.66 335.009 583.824 336.146 581.979C337.28 580.139 338.429 578.287 339.491 576.391L339.492 576.392C343.429 569.409 347.27 562.345 351.145 555.35L351.144 555.349C351.489 554.741 351.876 554.151 352.269 553.544C352.273 553.545 352.277 553.545 352.281 553.546Z" fill="white"/>
<path d="M352.281 553.546V566.499C352.298 571.13 353.264 575.558 354.4 579.958L354.896 581.844C357.02 589.795 358.973 597.808 360.468 605.884L360.761 607.5C361.505 611.744 361.28 615.699 359.934 619.183C358.59 622.661 356.115 625.702 352.302 628.105H352.301C348.939 630.228 345.523 631.262 342.135 631.238C338.747 631.215 335.354 630.134 332.04 627.975V627.974L331.404 627.547C328.289 625.38 326.11 622.746 324.84 619.741C323.485 616.535 323.152 612.874 323.865 608.854C325.224 601.178 329.13 594.411 332.865 587.542L332.866 587.541C333.886 585.66 335.009 583.824 336.146 581.979C337.28 580.139 338.429 578.287 339.491 576.391L339.492 576.392C343.429 569.409 347.27 562.345 351.145 555.35L351.144 555.349C351.489 554.741 351.876 554.151 352.269 553.544C352.273 553.545 352.277 553.545 352.281 553.546Z" stroke="black"/>
<path d="M352.281 553.546V566.499C352.298 571.13 353.264 575.558 354.4 579.958L354.896 581.844C357.02 589.795 358.973 597.808 360.468 605.884L360.761 607.5C361.505 611.744 361.28 615.699 359.934 619.183C358.59 622.661 356.115 625.702 352.302 628.105H352.301C348.939 630.228 345.523 631.262 342.135 631.238C338.747 631.215 335.354 630.134 332.04 627.975V627.974L331.404 627.547C328.289 625.38 326.11 622.746 324.84 619.741C323.485 616.535 323.152 612.874 323.865 608.854C325.224 601.178 329.13 594.411 332.865 587.542L332.866 587.541C333.886 585.66 335.009 583.824 336.146 581.979C337.28 580.139 338.429 578.287 339.491 576.391L339.492 576.392C343.429 569.409 347.27 562.345 351.145 555.35L351.144 555.349C351.489 554.741 351.876 554.151 352.269 553.544C352.273 553.545 352.277 553.545 352.281 553.546Z" stroke="black"/>
<path d="M311.511 657.475C312.228 653.802 312.848 650.572 313.488 647.208H360.304C359.567 651.075 358.831 654.865 358.172 658.288C357.125 657.978 356.272 657.495 355.419 657.495C341.713 657.456 328.027 657.456 314.321 657.456C313.488 657.456 312.654 657.456 311.491 657.456L311.511 657.475Z" fill="white"/>
<rect x="189.5" y="1294.5" width="701" height="76" rx="38" fill="url(#paint0_linear_73_10)" fill-opacity="0.2" stroke="black" stroke-width="3"/>
<path d="M361.555 1328.23L357.28 1342H354.28L351.505 1331.82L348.73 1342H345.73L341.43 1328.23H344.33L347.205 1339.3L350.13 1328.23H353.105L355.905 1339.25L358.755 1328.23H361.555ZM382.685 1328.23L378.41 1342H375.41L372.635 1331.82L369.86 1342H366.86L362.56 1328.23H365.46L368.335 1339.3L371.26 1328.23H374.235L377.035 1339.25L379.885 1328.23H382.685ZM403.815 1328.23L399.54 1342H396.54L393.765 1331.82L390.99 1342H387.99L383.69 1328.23H386.59L389.465 1339.3L392.39 1328.23H395.365L398.165 1339.25L401.015 1328.23H403.815ZM407.595 1342.18C407.078 1342.18 406.645 1342 406.295 1341.65C405.945 1341.3 405.77 1340.87 405.77 1340.35C405.77 1339.83 405.945 1339.4 406.295 1339.05C406.645 1338.7 407.078 1338.52 407.595 1338.52C408.095 1338.52 408.52 1338.7 408.87 1339.05C409.22 1339.4 409.395 1339.83 409.395 1340.35C409.395 1340.87 409.22 1341.3 408.87 1341.65C408.52 1342 408.095 1342.18 407.595 1342.18ZM418.3 1339.45L422.2 1328.23H425.225L419.975 1342H416.575L411.35 1328.23H414.4L418.3 1339.45ZM427.129 1326.38V1323.77H432.329V1342H429.454V1326.38H427.129ZM442.12 1342.23C441.036 1342.23 440.061 1342.03 439.195 1341.65C438.345 1341.25 437.67 1340.72 437.17 1340.05C436.67 1339.37 436.403 1338.61 436.37 1337.77H439.32C439.37 1338.36 439.645 1338.85 440.145 1339.25C440.661 1339.63 441.303 1339.82 442.07 1339.82C442.87 1339.82 443.486 1339.67 443.92 1339.37C444.37 1339.06 444.595 1338.66 444.595 1338.17C444.595 1337.66 444.345 1337.27 443.845 1337.02C443.361 1336.77 442.586 1336.5 441.52 1336.2C440.486 1335.92 439.645 1335.64 438.995 1335.37C438.345 1335.11 437.778 1334.7 437.295 1334.15C436.828 1333.6 436.595 1332.87 436.595 1331.97C436.595 1331.24 436.811 1330.57 437.245 1329.97C437.678 1329.36 438.295 1328.87 439.095 1328.52C439.911 1328.17 440.845 1328 441.895 1328C443.461 1328 444.72 1328.4 445.67 1329.2C446.636 1329.98 447.153 1331.06 447.22 1332.42H444.37C444.32 1331.81 444.07 1331.32 443.62 1330.95C443.17 1330.58 442.561 1330.4 441.795 1330.4C441.045 1330.4 440.47 1330.54 440.07 1330.82C439.67 1331.11 439.47 1331.48 439.47 1331.95C439.47 1332.32 439.603 1332.62 439.87 1332.87C440.136 1333.12 440.461 1333.32 440.845 1333.47C441.228 1333.61 441.795 1333.78 442.545 1334C443.545 1334.27 444.361 1334.54 444.995 1334.82C445.645 1335.09 446.203 1335.49 446.67 1336.02C447.136 1336.56 447.378 1337.27 447.395 1338.15C447.395 1338.93 447.178 1339.63 446.745 1340.25C446.311 1340.87 445.695 1341.35 444.895 1341.7C444.111 1342.05 443.186 1342.23 442.12 1342.23ZM463.449 1328.23V1342H460.599V1340.37C460.149 1340.94 459.557 1341.39 458.824 1341.72C458.107 1342.04 457.341 1342.2 456.524 1342.2C455.441 1342.2 454.466 1341.97 453.599 1341.52C452.749 1341.07 452.074 1340.41 451.574 1339.52C451.091 1338.64 450.849 1337.57 450.849 1336.32V1328.23H453.674V1335.9C453.674 1337.13 453.982 1338.08 454.599 1338.75C455.216 1339.4 456.057 1339.72 457.124 1339.72C458.191 1339.72 459.032 1339.4 459.649 1338.75C460.282 1338.08 460.599 1337.13 460.599 1335.9V1328.23H463.449ZM466.759 1335.05C466.759 1333.67 467.043 1332.44 467.609 1331.37C468.193 1330.31 468.976 1329.48 469.959 1328.9C470.959 1328.3 472.059 1328 473.259 1328C474.343 1328 475.284 1328.22 476.084 1328.65C476.901 1329.07 477.551 1329.59 478.034 1330.22V1328.23H480.909V1342H478.034V1339.95C477.551 1340.6 476.893 1341.14 476.059 1341.57C475.226 1342.01 474.276 1342.23 473.209 1342.23C472.026 1342.23 470.943 1341.93 469.959 1341.32C468.976 1340.71 468.193 1339.86 467.609 1338.77C467.043 1337.67 466.759 1336.43 466.759 1335.05ZM478.034 1335.1C478.034 1334.15 477.834 1333.32 477.434 1332.62C477.051 1331.92 476.543 1331.39 475.909 1331.02C475.276 1330.66 474.593 1330.47 473.859 1330.47C473.126 1330.47 472.443 1330.66 471.809 1331.02C471.176 1331.37 470.659 1331.9 470.259 1332.6C469.876 1333.28 469.684 1334.1 469.684 1335.05C469.684 1336 469.876 1336.83 470.259 1337.55C470.659 1338.27 471.176 1338.82 471.809 1339.2C472.459 1339.57 473.143 1339.75 473.859 1339.75C474.593 1339.75 475.276 1339.57 475.909 1339.2C476.543 1338.83 477.051 1338.3 477.434 1337.6C477.834 1336.88 478.034 1336.05 478.034 1335.1ZM488.003 1323.5V1342H485.153V1323.5H488.003ZM493.695 1326.4C493.178 1326.4 492.745 1326.22 492.395 1325.87C492.045 1325.52 491.87 1325.09 491.87 1324.57C491.87 1324.06 492.045 1323.62 492.395 1323.27C492.745 1322.92 493.178 1322.75 493.695 1322.75C494.195 1322.75 494.62 1322.92 494.97 1323.27C495.32 1323.62 495.495 1324.06 495.495 1324.57C495.495 1325.09 495.32 1325.52 494.97 1325.87C494.62 1326.22 494.195 1326.4 493.695 1326.4ZM495.095 1328.23V1342H492.245V1328.23H495.095ZM506.286 1328C507.37 1328 508.336 1328.22 509.186 1328.67C510.053 1329.12 510.728 1329.79 511.211 1330.67C511.695 1331.56 511.936 1332.62 511.936 1333.87V1342H509.111V1334.3C509.111 1333.07 508.803 1332.12 508.186 1331.47C507.57 1330.81 506.728 1330.47 505.661 1330.47C504.595 1330.47 503.745 1330.81 503.111 1331.47C502.495 1332.12 502.186 1333.07 502.186 1334.3V1342H499.336V1328.23H502.186V1329.8C502.653 1329.23 503.245 1328.79 503.961 1328.47C504.695 1328.16 505.47 1328 506.286 1328ZM517.222 1342.18C516.705 1342.18 516.272 1342 515.922 1341.65C515.572 1341.3 515.397 1340.87 515.397 1340.35C515.397 1339.83 515.572 1339.4 515.922 1339.05C516.272 1338.7 516.705 1338.52 517.222 1338.52C517.722 1338.52 518.147 1338.7 518.497 1339.05C518.847 1339.4 519.022 1339.83 519.022 1340.35C519.022 1340.87 518.847 1341.3 518.497 1341.65C518.147 1342 517.722 1342.18 517.222 1342.18ZM539.277 1328C540.36 1328 541.327 1328.22 542.177 1328.67C543.044 1329.12 543.719 1329.79 544.202 1330.67C544.702 1331.56 544.952 1332.62 544.952 1333.87V1342H542.127V1334.3C542.127 1333.07 541.819 1332.12 541.202 1331.47C540.585 1330.81 539.744 1330.47 538.677 1330.47C537.61 1330.47 536.76 1330.81 536.127 1331.47C535.51 1332.12 535.202 1333.07 535.202 1334.3V1342H532.377V1334.3C532.377 1333.07 532.069 1332.12 531.452 1331.47C530.835 1330.81 529.994 1330.47 528.927 1330.47C527.86 1330.47 527.01 1330.81 526.377 1331.47C525.76 1332.12 525.452 1333.07 525.452 1334.3V1342H522.602V1328.23H525.452V1329.8C525.919 1329.23 526.51 1328.79 527.227 1328.47C527.944 1328.16 528.71 1328 529.527 1328C530.627 1328 531.61 1328.23 532.477 1328.7C533.344 1329.17 534.01 1329.84 534.477 1330.72C534.894 1329.89 535.544 1329.23 536.427 1328.75C537.31 1328.25 538.26 1328 539.277 1328ZM561.479 1328.23L553.029 1348.48H550.079L552.879 1341.77L547.454 1328.23H550.629L554.504 1338.72L558.529 1328.23H561.479ZM565.279 1342.18C564.763 1342.18 564.329 1342 563.979 1341.65C563.629 1341.3 563.454 1340.87 563.454 1340.35C563.454 1339.83 563.629 1339.4 563.979 1339.05C564.329 1338.7 564.763 1338.52 565.279 1338.52C565.779 1338.52 566.204 1338.7 566.554 1339.05C566.904 1339.4 567.079 1339.83 567.079 1340.35C567.079 1340.87 566.904 1341.3 566.554 1341.65C566.204 1342 565.779 1342.18 565.279 1342.18ZM572.11 1326.4C571.593 1326.4 571.16 1326.22 570.81 1325.87C570.46 1325.52 570.285 1325.09 570.285 1324.57C570.285 1324.06 570.46 1323.62 570.81 1323.27C571.16 1322.92 571.593 1322.75 572.11 1322.75C572.61 1322.75 573.035 1322.92 573.385 1323.27C573.735 1323.62 573.91 1324.06 573.91 1324.57C573.91 1325.09 573.735 1325.52 573.385 1325.87C573.035 1326.22 572.61 1326.4 572.11 1326.4ZM573.51 1328.23V1342H570.66V1328.23H573.51ZM576.801 1335.05C576.801 1333.67 577.085 1332.44 577.651 1331.37C578.235 1330.31 579.018 1329.48 580.001 1328.9C581.001 1328.3 582.11 1328 583.326 1328C584.226 1328 585.11 1328.2 585.976 1328.6C586.86 1328.98 587.56 1329.5 588.076 1330.15V1323.5H590.951V1342H588.076V1339.92C587.61 1340.59 586.96 1341.14 586.126 1341.57C585.31 1342.01 584.368 1342.23 583.301 1342.23C582.101 1342.23 581.001 1341.93 580.001 1341.32C579.018 1340.71 578.235 1339.86 577.651 1338.77C577.085 1337.67 576.801 1336.43 576.801 1335.05ZM588.076 1335.1C588.076 1334.15 587.876 1333.32 587.476 1332.62C587.093 1331.92 586.585 1331.39 585.951 1331.02C585.318 1330.66 584.635 1330.47 583.901 1330.47C583.168 1330.47 582.485 1330.66 581.851 1331.02C581.218 1331.37 580.701 1331.9 580.301 1332.6C579.918 1333.28 579.726 1334.1 579.726 1335.05C579.726 1336 579.918 1336.83 580.301 1337.55C580.701 1338.27 581.218 1338.82 581.851 1339.2C582.501 1339.57 583.185 1339.75 583.901 1339.75C584.635 1339.75 585.318 1339.57 585.951 1339.2C586.585 1338.83 587.093 1338.3 587.476 1337.6C587.876 1336.88 588.076 1336.05 588.076 1335.1Z" fill="black"/>
<path d="M694.402 1339.45L698.302 1328.23H701.327L696.077 1342H692.677L687.452 1328.23H690.502L694.402 1339.45ZM703.231 1326.38V1323.77H708.431V1342H705.556V1326.38H703.231ZM718.221 1342.23C717.138 1342.23 716.163 1342.03 715.296 1341.65C714.446 1341.25 713.771 1340.72 713.271 1340.05C712.771 1339.37 712.505 1338.61 712.471 1337.77H715.421C715.471 1338.36 715.746 1338.85 716.246 1339.25C716.763 1339.63 717.405 1339.82 718.171 1339.82C718.971 1339.82 719.588 1339.67 720.021 1339.37C720.471 1339.06 720.696 1338.66 720.696 1338.17C720.696 1337.66 720.446 1337.27 719.946 1337.02C719.463 1336.77 718.688 1336.5 717.621 1336.2C716.588 1335.92 715.746 1335.64 715.096 1335.37C714.446 1335.11 713.88 1334.7 713.396 1334.15C712.93 1333.6 712.696 1332.87 712.696 1331.97C712.696 1331.24 712.913 1330.57 713.346 1329.97C713.78 1329.36 714.396 1328.87 715.196 1328.52C716.013 1328.17 716.946 1328 717.996 1328C719.563 1328 720.821 1328.4 721.771 1329.2C722.738 1329.98 723.255 1331.06 723.321 1332.42H720.471C720.421 1331.81 720.171 1331.32 719.721 1330.95C719.271 1330.58 718.663 1330.4 717.896 1330.4C717.146 1330.4 716.571 1330.54 716.171 1330.82C715.771 1331.11 715.571 1331.48 715.571 1331.95C715.571 1332.32 715.705 1332.62 715.971 1332.87C716.238 1333.12 716.563 1333.32 716.946 1333.47C717.33 1333.61 717.896 1333.78 718.646 1334C719.646 1334.27 720.463 1334.54 721.096 1334.82C721.746 1335.09 722.305 1335.49 722.771 1336.02C723.238 1336.56 723.48 1337.27 723.496 1338.15C723.496 1338.93 723.28 1339.63 722.846 1340.25C722.413 1340.87 721.796 1341.35 720.996 1341.7C720.213 1342.05 719.288 1342.23 718.221 1342.23ZM739.551 1328.23V1342H736.701V1340.37C736.251 1340.94 735.659 1341.39 734.926 1341.72C734.209 1342.04 733.442 1342.2 732.626 1342.2C731.542 1342.2 730.567 1341.97 729.701 1341.52C728.851 1341.07 728.176 1340.41 727.676 1339.52C727.192 1338.64 726.951 1337.57 726.951 1336.32V1328.23H729.776V1335.9C729.776 1337.13 730.084 1338.08 730.701 1338.75C731.317 1339.4 732.159 1339.72 733.226 1339.72C734.292 1339.72 735.134 1339.4 735.751 1338.75C736.384 1338.08 736.701 1337.13 736.701 1335.9V1328.23H739.551ZM742.861 1335.05C742.861 1333.67 743.144 1332.44 743.711 1331.37C744.294 1330.31 745.078 1329.48 746.061 1328.9C747.061 1328.3 748.161 1328 749.361 1328C750.444 1328 751.386 1328.22 752.186 1328.65C753.003 1329.07 753.653 1329.59 754.136 1330.22V1328.23H757.011V1342H754.136V1339.95C753.653 1340.6 752.994 1341.14 752.161 1341.57C751.328 1342.01 750.378 1342.23 749.311 1342.23C748.128 1342.23 747.044 1341.93 746.061 1341.32C745.078 1340.71 744.294 1339.86 743.711 1338.77C743.144 1337.67 742.861 1336.43 742.861 1335.05ZM754.136 1335.1C754.136 1334.15 753.936 1333.32 753.536 1332.62C753.153 1331.92 752.644 1331.39 752.011 1331.02C751.378 1330.66 750.694 1330.47 749.961 1330.47C749.228 1330.47 748.544 1330.66 747.911 1331.02C747.278 1331.37 746.761 1331.9 746.361 1332.6C745.978 1333.28 745.786 1334.1 745.786 1335.05C745.786 1336 745.978 1336.83 746.361 1337.55C746.761 1338.27 747.278 1338.82 747.911 1339.2C748.561 1339.57 749.244 1339.75 749.961 1339.75C750.694 1339.75 751.378 1339.57 752.011 1339.2C752.644 1338.83 753.153 1338.3 753.536 1337.6C753.936 1336.88 754.136 1336.05 754.136 1335.1ZM764.104 1323.5V1342H761.254V1323.5H764.104ZM769.796 1326.4C769.28 1326.4 768.846 1326.22 768.496 1325.87C768.146 1325.52 767.971 1325.09 767.971 1324.57C767.971 1324.06 768.146 1323.62 768.496 1323.27C768.846 1322.92 769.28 1322.75 769.796 1322.75C770.296 1322.75 770.721 1322.92 771.071 1323.27C771.421 1323.62 771.596 1324.06 771.596 1324.57C771.596 1325.09 771.421 1325.52 771.071 1325.87C770.721 1326.22 770.296 1326.4 769.796 1326.4ZM771.196 1328.23V1342H768.346V1328.23H771.196ZM782.388 1328C783.471 1328 784.438 1328.22 785.288 1328.67C786.155 1329.12 786.83 1329.79 787.313 1330.67C787.796 1331.56 788.038 1332.62 788.038 1333.87V1342H785.213V1334.3C785.213 1333.07 784.905 1332.12 784.288 1331.47C783.671 1330.81 782.83 1330.47 781.763 1330.47C780.696 1330.47 779.846 1330.81 779.213 1331.47C778.596 1332.12 778.288 1333.07 778.288 1334.3V1342H775.438V1328.23H778.288V1329.8C778.755 1329.23 779.346 1328.79 780.063 1328.47C780.796 1328.16 781.571 1328 782.388 1328Z" fill="black"/>
<path d="M319.156 1337.2C319.324 1335.81 319.45 1334.43 319.45 1333C319.45 1331.57 319.324 1330.19 319.156 1328.8H326.254C326.59 1330.14 326.8 1331.55 326.8 1333C326.8 1334.45 326.59 1335.86 326.254 1337.2M315.439 1348.88C316.699 1346.54 317.665 1344.02 318.337 1341.4H324.532C322.497 1344.9 319.27 1347.56 315.439 1348.88ZM314.914 1337.2H305.086C304.876 1335.81 304.75 1334.43 304.75 1333C304.75 1331.57 304.876 1330.16 305.086 1328.8H314.914C315.103 1330.16 315.25 1331.57 315.25 1333C315.25 1334.43 315.103 1335.81 314.914 1337.2ZM310 1349.72C308.257 1347.2 306.85 1344.4 305.989 1341.4H314.011C313.15 1344.4 311.743 1347.2 310 1349.72ZM301.6 1324.6H295.468C297.481 1321.09 300.707 1318.43 304.54 1317.12C303.28 1319.45 302.335 1321.97 301.6 1324.6ZM295.468 1341.4H301.6C302.335 1344.02 303.28 1346.54 304.54 1348.88C300.714 1347.56 297.493 1344.9 295.468 1341.4ZM293.746 1337.2C293.41 1335.86 293.2 1334.45 293.2 1333C293.2 1331.55 293.41 1330.14 293.746 1328.8H300.844C300.676 1330.19 300.55 1331.57 300.55 1333C300.55 1334.43 300.676 1335.81 300.844 1337.2M310 1316.26C311.743 1318.78 313.15 1321.6 314.011 1324.6H305.989C306.85 1321.6 308.257 1318.78 310 1316.26ZM324.532 1324.6H318.337C317.679 1322 316.706 1319.49 315.439 1317.12C319.303 1318.45 322.516 1321.11 324.532 1324.6ZM310 1312C298.387 1312 289 1321.45 289 1333C289 1338.57 291.212 1343.91 295.151 1347.85C297.101 1349.8 299.416 1351.35 301.964 1352.4C304.511 1353.46 307.242 1354 310 1354C315.57 1354 320.911 1351.79 324.849 1347.85C328.788 1343.91 331 1338.57 331 1333C331 1330.24 330.457 1327.51 329.401 1324.96C328.346 1322.42 326.799 1320.1 324.849 1318.15C322.899 1316.2 320.584 1314.65 318.036 1313.6C315.489 1312.54 312.758 1312 310 1312Z" fill="black"/>
<path d="M646.18 1312H663.82C670.54 1312 676 1317.46 676 1324.18V1341.82C676 1345.05 674.717 1348.15 672.433 1350.43C670.148 1352.72 667.05 1354 663.82 1354H646.18C639.46 1354 634 1348.54 634 1341.82V1324.18C634 1320.95 635.283 1317.85 637.567 1315.57C639.852 1313.28 642.95 1312 646.18 1312ZM645.76 1316.2C643.755 1316.2 641.832 1317 640.414 1318.41C638.996 1319.83 638.2 1321.75 638.2 1323.76V1342.24C638.2 1346.42 641.581 1349.8 645.76 1349.8H664.24C666.245 1349.8 668.168 1349 669.586 1347.59C671.004 1346.17 671.8 1344.25 671.8 1342.24V1323.76C671.8 1319.58 668.419 1316.2 664.24 1316.2H645.76ZM666.025 1319.35C666.721 1319.35 667.389 1319.63 667.881 1320.12C668.373 1320.61 668.65 1321.28 668.65 1321.97C668.65 1322.67 668.373 1323.34 667.881 1323.83C667.389 1324.32 666.721 1324.6 666.025 1324.6C665.329 1324.6 664.661 1324.32 664.169 1323.83C663.677 1323.34 663.4 1322.67 663.4 1321.97C663.4 1321.28 663.677 1320.61 664.169 1320.12C664.661 1319.63 665.329 1319.35 666.025 1319.35ZM655 1322.5C657.785 1322.5 660.455 1323.61 662.425 1325.58C664.394 1327.54 665.5 1330.22 665.5 1333C665.5 1335.78 664.394 1338.46 662.425 1340.42C660.455 1342.39 657.785 1343.5 655 1343.5C652.215 1343.5 649.545 1342.39 647.575 1340.42C645.606 1338.46 644.5 1335.78 644.5 1333C644.5 1330.22 645.606 1327.54 647.575 1325.58C649.545 1323.61 652.215 1322.5 655 1322.5ZM655 1326.7C653.329 1326.7 651.727 1327.36 650.545 1328.55C649.364 1329.73 648.7 1331.33 648.7 1333C648.7 1334.67 649.364 1336.27 650.545 1337.45C651.727 1338.64 653.329 1339.3 655 1339.3C656.671 1339.3 658.273 1338.64 659.455 1337.45C660.636 1336.27 661.3 1334.67 661.3 1333C661.3 1331.33 660.636 1329.73 659.455 1328.55C658.273 1327.36 656.671 1326.7 655 1326.7Z" fill="black"/>
<defs>
<linearGradient id="paint0_linear_73_10" x1="188" y1="1332.5" x2="892" y2="1332.5" gradientUnits="userSpaceOnUse">
<stop offset="0.2"/>
<stop offset="0.5"/>
<stop offset="0.8"/>
</linearGradient>
</defs>
</svg>
